<svg width="40" height="40" viewBox="0 0 40 40" fill="none" xmlns="http://www.w3.org/2000/svg">
<path d="M20 0C8.972 0 0 8.972 0 20C0 31.027 8.972 40 20 40C31.027 40 40 31.027 40 20C40 8.972 31.027 0 20 0ZM20 37C10.626 37 3 29.374 3 20C3 10.626 10.626 3 20 3C29.374 3 37 10.626 37 20C37 29.374 29.374 37 20 37ZM30.469 12.355C31.102 12.89 31.18 13.836 30.645 14.469L19.645 27.469C19.367 27.796 18.954 28 18.5 28C18.138 28 17.787 27.869 17.512 27.629L9.512 20.629C8.888 20.084 8.825 19.136 9.371 18.512C9.916 17.888 10.863 17.825 11.488 18.371L18.34 24.367L28.356 12.532C28.891 11.899 29.836 11.82 30.469 12.355Z" fill="#495057"/>
</svg>
