<svg width="82" height="93" viewBox="0 0 82 93" fill="none" xmlns="http://www.w3.org/2000/svg">
<path d="M68.265 92.6857H13.695C6.1364 92.674 0.011 86.549 0 78.9907V24.4247C0.13672 15.2255 7.9375 9.79974 16.719 10.7337V8.31964C16.6799 6.08914 17.5549 3.93684 19.1409 2.36654C20.7268 0.796241 22.887 -0.0592595 25.1175 0.00324049C27.3402 -0.0592595 29.4925 0.78449 31.0745 2.34704C32.6565 3.90959 33.5315 6.05014 33.4964 8.27284V10.7298H48.4614L48.4653 8.31964C48.4184 6.09304 49.2856 3.94074 50.8676 2.37044C52.4457 0.800141 54.602 -0.0553595 56.8285 0.00324049C62.4769 0.0696475 65.8832 4.38214 65.2426 10.7302C74.0278 9.80836 81.8206 15.2107 81.9616 24.4252V78.9912C81.9499 86.5498 75.8249 92.6752 68.2666 92.6862L68.265 92.6857ZM13.695 16.9787C9.5856 16.9826 6.2536 20.3146 6.2497 24.424V78.99C6.25361 83.0994 9.5856 86.4314 13.695 86.4353H68.265C72.3744 86.4314 75.7064 83.0994 75.7103 78.99V24.424C75.7064 20.3146 72.3744 16.9826 68.265 16.9787H65.2416C66.7846 31.2637 46.9176 31.3697 48.4646 16.9787H33.4956C34.9487 31.3537 15.2576 31.3417 16.7186 16.9787H13.695ZM22.9684 19.3849V19.3888C22.9918 20.5529 23.945 21.4826 25.109 21.4826C26.2731 21.4826 27.2223 20.553 27.2457 19.3888V8.31885C27.2848 7.74854 27.0699 7.19385 26.6598 6.79545C26.2535 6.39701 25.691 6.2017 25.1246 6.25248C24.5464 6.2017 23.9762 6.40482 23.5621 6.80717C23.148 7.20951 22.9292 7.77592 22.9683 8.35407L22.9684 19.3849ZM55.8434 21.2716C56.5153 21.6037 57.3122 21.5685 57.9528 21.174C58.5934 20.7795 58.984 20.0842 58.9919 19.3342V13.8537C58.9958 13.7638 58.988 8.40448 58.9919 8.31848C58.9685 7.14658 58.0075 6.21298 56.8396 6.22078C55.6677 6.2286 54.7224 7.17392 54.7146 8.34579V19.3888C54.7146 20.1739 55.1481 20.9005 55.8434 21.2716ZM62.7692 73.8966H56.1989C54.4723 73.8966 53.0739 72.4982 53.0739 70.7716C53.0739 69.045 54.4723 67.6466 56.1989 67.6466H62.7692C64.4801 67.6701 65.8512 69.0646 65.8512 70.7716C65.8512 72.4825 64.4801 73.8732 62.7692 73.8966ZM44.2652 73.8966H37.6949C35.984 73.8732 34.6129 72.4825 34.6129 70.7716C34.6129 69.0646 35.984 67.67 37.6949 67.6466H44.2691H44.2652C45.9761 67.6701 47.3472 69.0646 47.3472 70.7716C47.3472 72.4825 45.9761 73.8732 44.2652 73.8966ZM25.7572 73.8966H19.1908C17.4642 73.8966 16.0658 72.4982 16.0658 70.7716C16.0658 69.045 17.4642 67.6466 19.1908 67.6466H25.7611C27.4681 67.6701 28.8431 69.0646 28.8431 70.7716C28.8431 72.4825 27.4681 73.8732 25.7611 73.8966H25.7572ZM62.7652 59.9476H56.1988C54.4722 59.9476 53.0738 58.5492 53.0738 56.8226C53.0738 55.096 54.4722 53.6976 56.1988 53.6976H62.7691C64.48 53.7211 65.8511 55.1156 65.8511 56.8226C65.8511 58.5335 64.48 59.9242 62.7691 59.9476H62.7652ZM44.2612 59.9476H37.6948C35.9839 59.9242 34.6128 58.5335 34.6128 56.8226C34.6128 55.1156 35.9839 53.721 37.6948 53.6976H44.269H44.2651C45.976 53.7211 47.3471 55.1156 47.3471 56.8226C47.3471 58.5335 45.976 59.9242 44.2651 59.9476H44.2612ZM25.7532 59.9476H19.1907C17.4641 59.9476 16.0657 58.5492 16.0657 56.8226C16.0657 55.096 17.4641 53.6976 19.1907 53.6976H25.761C27.468 53.7211 28.843 55.1156 28.843 56.8226C28.843 58.5335 27.468 59.9242 25.761 59.9476H25.7532ZM62.7612 45.9946H56.1987C54.4721 45.9946 53.0737 44.5962 53.0737 42.8696C53.0737 41.143 54.4721 39.7446 56.1987 39.7446H62.769C64.4799 39.7681 65.851 41.1626 65.851 42.8696C65.851 44.5805 64.4799 45.9712 62.769 45.9946H62.7612ZM44.2572 45.9946H37.6947C35.9838 45.9712 34.6127 44.5805 34.6127 42.8696C34.6127 41.1626 35.9838 39.768 37.6947 39.7446H44.2689H44.265C45.9759 39.7681 47.347 41.1626 47.347 42.8696C47.347 44.5805 45.9759 45.9712 44.265 45.9946H44.2572ZM25.7492 45.9946H19.1906C17.464 45.9946 16.0656 44.5962 16.0656 42.8696C16.0656 41.143 17.464 39.7446 19.1906 39.7446H25.7609C27.4679 39.7681 28.8429 41.1626 28.8429 42.8696C28.8429 44.5805 27.4679 45.9712 25.7609 45.9946H25.7492Z" fill="#495057"/>
</svg>
