<svg width="94" height="88" viewBox="0 0 94 88" fill="none" xmlns="http://www.w3.org/2000/svg">
<path d="M93.7463 10.93C93.7463 4.8988 88.844 0 82.8123 0H20.3083C14.2771 0 9.37426 4.8984 9.37426 10.93V35.059L5.46406 37.3168C0.241364 40.3324 -1.55154 47.0395 1.46406 52.2658L18.6481 82.0358C21.6637 87.2585 28.3629 89.0553 33.5861 86.0397L85.9841 55.7777C90.4724 54.4105 93.7458 50.2308 93.7458 45.3047L93.7463 10.93ZM20.3083 3.1214H82.8123C87.1678 3.1214 90.6209 6.5745 90.6209 10.93V31.242H12.4959V10.93C12.4959 6.5745 15.949 3.1214 20.3045 3.1214H20.3083ZM67.1833 9.3714C62.8864 9.3714 59.3747 12.8831 59.3747 17.18C59.3747 21.4769 62.8864 24.9886 67.1833 24.9886C68.9411 24.9886 70.5661 24.4027 71.8747 23.4144C73.1833 24.4027 74.8083 24.9886 76.5622 24.9886C80.8591 24.9886 84.3708 21.4769 84.3708 17.18C84.3708 12.8831 80.8591 9.3714 76.5622 9.3714C74.8083 9.3714 73.1794 9.95734 71.8708 10.9456C70.5622 9.95732 68.9372 9.3714 67.1833 9.3714ZM76.5622 12.5003C79.1677 12.5003 81.2419 14.5745 81.2419 17.18C81.2419 19.7855 79.1677 21.8597 76.5622 21.8597C75.5895 21.8597 74.6911 21.5706 73.945 21.0706C74.609 19.9222 74.9958 18.594 74.9958 17.1761C74.9958 15.7581 74.613 14.43 73.945 13.2816C74.6911 12.7816 75.5895 12.4926 76.5622 12.4926V12.5003ZM9.37416 38.6683V45.3011C9.37416 51.3323 14.2765 56.2461 20.3082 56.2461H78.9292L32.0312 83.3201C28.2578 85.4959 23.5273 84.2342 21.3512 80.4607L4.16316 50.6907C1.98736 46.9173 3.253 42.1985 7.02646 40.0227L9.37416 38.6683ZM12.4992 45.3011H90.6242C90.6242 49.6566 87.1711 53.1214 82.8156 53.1214H20.3116C15.9561 53.1214 12.503 49.6566 12.503 45.3011H12.4992ZM36.1832 59.2741L22.6562 67.0827C21.9062 67.5124 21.6484 68.4694 22.078 69.2155C22.5077 69.9655 23.4647 70.2233 24.2108 69.7936L37.7498 61.985C38.4998 61.5514 38.7537 60.5866 38.3163 59.8405C37.8788 59.0866 36.9215 58.8483 36.1832 59.2741ZM48.9842 62.6999L27.3362 75.2039C26.594 75.6375 26.3401 76.5906 26.7698 77.3367C27.1994 78.0867 28.1565 78.3445 28.9026 77.9148L50.5506 65.4108C51.2966 64.9772 51.5506 64.0241 51.117 63.278C50.6912 62.5397 49.7303 62.2702 48.9803 62.6999H48.9842Z" fill="#495057"/>
</svg>
