<svg width="60" height="52" viewBox="0 0 60 52" fill="none" xmlns="http://www.w3.org/2000/svg">
<path d="M51 34C51 35.1046 50.1046 36 49 36H41C39.8954 36 39 35.1046 39 34C39 32.8954 39.8954 32 41 32H49C50.1046 32 51 32.8954 51 34Z" fill="#495057"/>
<path fill-rule="evenodd" clip-rule="evenodd" d="M11.5393 4.1897C12.9377 1.60819 15.6377 0 18.5737 0H52C56.4183 0 60 3.58172 60 8V44C60 48.4183 56.4183 52 52 52H8C3.58172 52 0 48.4183 0 44V27.5206C0 26.19 0.33191 24.8804 0.96566 23.7104L11.5393 4.1897ZM56 24V8C56 5.7909 54.2091 4 52 4H18.5737C17.1057 4 15.7557 4.8041 15.0565 6.0949L5.35789 24H56ZM4 28H56V44C56 46.2091 54.2091 48 52 48H8C5.79086 48 4 46.2091 4 44V28Z" fill="#495057"/>
</svg>
