<svg width="88" height="88" viewBox="0 0 88 88" fill="none" xmlns="http://www.w3.org/2000/svg">
<path d="M14.0456 54.9953C13.7448 54.9953 13.4401 54.9093 13.1745 54.7297C8.5495 51.6164 5.7878 46.4406 5.7878 40.8937C5.7878 38.3937 6.36592 35.8897 7.4636 33.6475C7.84251 32.8702 8.7839 32.5498 9.5534 32.9288C10.3307 33.3077 10.6511 34.2413 10.2722 35.0186C9.38543 36.8389 8.91275 38.8702 8.91275 40.8936C8.91275 45.4014 11.1589 49.6045 14.9206 52.1356C15.6354 52.62 15.8268 53.5887 15.3424 54.3036C15.0417 54.7528 14.5456 54.9911 14.0455 54.9911L14.0456 54.9953Z" fill="#495057"/>
<path d="M17.0966 50.0813C16.788 50.0813 16.4755 49.9875 16.2021 49.7961C13.3037 47.7609 11.5693 44.4328 11.5693 40.8938C11.5693 38.0227 12.7334 35.218 14.7646 33.2063C15.3778 32.5969 16.3662 32.6008 16.9755 33.2141C17.5848 33.8274 17.577 34.8157 16.9676 35.425C15.5223 36.8547 14.6942 38.8469 14.6942 40.8938C14.6942 43.4172 15.9286 45.7922 17.995 47.2415C18.7021 47.7337 18.874 48.7103 18.3779 49.4173C18.0732 49.8509 17.5887 50.0813 17.0966 50.0813Z" fill="#495057"/>
<path d="M71.9436 55.8662C71.3811 55.8662 70.8342 55.5616 70.5569 55.0264C70.1585 54.2608 70.4553 53.3155 71.2209 52.917C75.7365 50.5654 78.5413 45.96 78.5413 40.894C78.5413 38.8667 78.0725 36.8354 77.1858 35.019C76.8068 34.2456 77.1272 33.3081 77.9045 32.9292C78.6779 32.5464 79.6154 32.8706 79.9943 33.648C81.0881 35.8902 81.6662 38.3941 81.6662 40.8941C81.6662 47.1285 78.217 52.8001 72.6662 55.6911C72.4357 55.8121 72.1896 55.8668 71.9475 55.8668L71.9436 55.8662Z" fill="#495057"/>
<path d="M69.8146 50.4333C69.2833 50.4333 68.7677 50.1637 68.4748 49.6794C68.0295 48.9372 68.2678 47.9802 69.006 47.5349C71.3537 46.1208 72.756 43.6404 72.756 40.8982C72.756 38.8513 71.9279 36.8591 70.4826 35.4294C69.8694 34.82 69.8655 33.8356 70.4748 33.2185C71.0803 32.6052 72.0686 32.6013 72.6857 33.2106C74.7169 35.2223 75.881 38.027 75.881 40.8981C75.881 44.6872 73.8654 48.2575 70.6193 50.2106C70.3654 50.363 70.0881 50.4372 69.8146 50.4372L69.8146 50.4333Z" fill="#495057"/>
<path d="M22.4436 42.4563C22.0452 42.4563 21.6428 42.3039 21.3381 41.9992L12.26 32.9211C11.6506 32.3117 11.6506 31.3234 12.26 30.7102C12.8694 30.1008 13.8577 30.1008 14.4709 30.7102L22.4436 38.6829L31.9944 29.1321C32.0374 29.0892 32.0842 29.0462 32.1311 29.011L38.6897 22.4407L30.7131 14.4641C30.1037 13.8548 30.1037 12.8664 30.7131 12.2532C31.3225 11.6439 32.3108 11.6439 32.924 12.2532L42.0021 21.3313C42.6115 21.9407 42.6115 22.929 42.0021 23.5383L34.2209 31.3352C34.1779 31.3782 34.1311 31.4212 34.0803 31.4602L23.5453 41.9912C23.2406 42.2959 22.8422 42.4483 22.4398 42.4483L22.4436 42.4563Z" fill="#495057"/>
<path d="M22.4596 33.8473C21.4166 33.8473 20.3737 33.4488 19.5807 32.6598L16.0573 29.1364C15.4479 28.527 15.4479 27.5387 16.0573 26.9255L19.7565 23.2302C20.3659 22.6208 21.3542 22.6208 21.9674 23.2302L25.4908 26.7536C27.0767 28.3434 27.0767 30.9255 25.4908 32.5153L25.3424 32.6637C24.5455 33.4567 23.5065 33.8551 22.4596 33.8551L22.4596 33.8473ZM19.3737 28.027L21.7917 30.445C22.1628 30.8161 22.7644 30.8161 23.1315 30.445L23.2799 30.2965C23.6471 29.9293 23.6471 29.3239 23.2799 28.9567L20.8658 26.5387L19.3775 28.027L19.3737 28.027Z" fill="#495057"/>
<path d="M29.6276 26.6792C28.5846 26.6792 27.5417 26.2808 26.7487 25.4917L23.2253 21.9683C22.6159 21.359 22.6159 20.3706 23.2253 19.7574L26.9245 16.0621C27.5339 15.4528 28.5222 15.4528 29.1354 16.0621L32.6588 19.5855C34.2447 21.1753 34.2447 23.7574 32.6588 25.3472L32.5104 25.4957C31.7135 26.2886 30.6745 26.6871 29.6276 26.6871L29.6276 26.6792ZM26.5417 20.8589L28.9597 23.2769C29.3308 23.648 29.9363 23.648 30.2995 23.2769L30.4479 23.1285C30.8151 22.7613 30.8151 22.1558 30.4479 21.7887L28.0338 19.3707L26.5455 20.859L26.5417 20.8589Z" fill="#495057"/>
<path d="M9.69359 37.0703C9.65062 37.0703 9.60766 37.0703 9.56078 37.0624C9.09984 37.0234 8.68187 36.7851 8.41628 36.4062L1.33818 26.2932C-0.720417 23.344 -0.372717 19.3518 2.1663 16.7971L16.7913 2.16809C19.3616 -0.378806 23.3577 -0.714707 26.2952 1.35559L36.3852 8.41419C36.7641 8.67981 37.0063 9.09778 37.0454 9.55479C37.0844 10.0157 36.9204 10.4689 36.5922 10.797L29.1234 18.2658C28.5141 18.8752 27.5257 18.8752 26.9125 18.2658C26.3032 17.6564 26.3032 16.6681 26.9125 16.0549L33.0648 9.90259L24.4984 3.91039C22.7953 2.70729 20.4789 2.90259 18.9945 4.37914L4.37754 19.0001C2.90874 20.4767 2.70564 22.797 3.89707 24.5001L9.89707 33.0821L16.0573 26.9259C16.6706 26.3166 17.655 26.3166 18.2682 26.9299C18.8775 27.5431 18.8736 28.5315 18.2643 29.1408L10.7995 36.6056C10.5065 36.8985 10.1042 37.0665 9.69007 37.0665L9.69359 37.0703Z" fill="#495057"/>
<path d="M20.8616 25.8983C20.4632 25.8983 20.0608 25.7459 19.7561 25.4412C19.1467 24.8319 19.1467 23.8435 19.7561 23.2303L23.2249 19.7615C23.8343 19.1522 24.8226 19.1522 25.4358 19.7615C26.0452 20.3709 26.0452 21.3592 25.4358 21.9724L21.967 25.4412C21.6623 25.7459 21.264 25.8983 20.8616 25.8983Z" fill="#495057"/>
<path d="M65.0496 42.4603C64.6512 42.4603 64.2488 42.3079 63.9441 42.0032L45.4911 23.5502C44.8817 22.9409 44.8817 21.9525 45.4911 21.3393L54.5653 12.2651C55.1747 11.6558 56.163 11.6558 56.7762 12.2651C57.3856 12.8745 57.3856 13.8628 56.7762 14.476L48.8074 22.4448L65.0494 38.6868L73.0182 30.718C73.6276 30.1087 74.6159 30.1087 75.2291 30.718C75.8385 31.3274 75.8385 32.3157 75.2291 32.9289L66.1549 42.0031C65.8502 42.3078 65.452 42.4603 65.0496 42.4603Z" fill="#495057"/>
<path d="M65.3966 33.8472C64.3536 33.8472 63.3107 33.4488 62.5177 32.6558L62.3693 32.5074C60.7834 30.9176 60.7834 28.3355 62.3693 26.7457L65.7248 23.3941C66.3341 22.7847 67.3225 22.7847 67.9357 23.3941L71.631 27.0894C72.2403 27.6988 72.2403 28.6871 71.631 29.3003L68.2794 32.6519C67.4864 33.4449 66.4435 33.8433 65.4005 33.8433L65.3966 33.8472ZM66.8263 26.7105L64.5763 28.9566C64.2091 29.3238 64.2091 29.9293 64.5763 30.2964L64.7247 30.4449C65.0919 30.8121 65.6935 30.8121 66.0645 30.4449L68.3145 28.1949L66.8262 26.7066L66.8263 26.7105Z" fill="#495057"/>
<path d="M58.2286 26.6792C57.1856 26.6792 56.1427 26.2808 55.3497 25.4917L55.2013 25.3433C53.6154 23.7535 53.6154 21.1714 55.2013 19.5816L58.5567 16.23C59.1661 15.6206 60.1545 15.6206 60.7677 16.23L64.463 19.9253C65.0723 20.5347 65.0723 21.523 64.463 22.1362L61.1114 25.4878C60.3184 26.2808 59.2755 26.6792 58.2325 26.6792L58.2286 26.6792ZM59.6583 19.5425L57.4083 21.7886C57.0411 22.1558 57.0411 22.7613 57.4083 23.1284L57.5567 23.2769C57.9239 23.6441 58.5255 23.6441 58.8965 23.2769L61.1465 21.0269L59.6582 19.5386L59.6583 19.5425Z" fill="#495057"/>
<path d="M77.7956 37.0622C77.3815 37.0622 76.9831 36.8982 76.6901 36.6052L69.5104 29.4255C68.901 28.8161 68.901 27.8278 69.5104 27.2146C70.1198 26.6052 71.1081 26.6052 71.7213 27.2146L77.5846 33.0779L83.5924 24.5037C84.7916 22.7928 84.5885 20.4842 83.1119 19.0076L68.4909 4.38662C67.0182 2.91392 64.7097 2.70692 62.9948 3.90615L54.4206 9.91395L60.655 16.1483C61.2644 16.7577 61.2644 17.746 60.655 18.3592C60.0456 18.9686 59.0573 18.9686 58.4441 18.3592L50.8894 10.8045C50.5613 10.4764 50.3972 10.0233 50.4363 9.56235C50.4754 9.10141 50.7176 8.68344 51.0965 8.41785L61.1985 1.34365C64.1516 -0.722754 68.1438 -0.375154 70.6946 2.17568L85.3156 16.7967C87.8664 19.3475 88.214 23.3397 86.1437 26.2928L79.0695 36.3948C78.8039 36.7737 78.3859 37.0159 77.925 37.0549C77.8781 37.0588 77.8351 37.0627 77.7883 37.0627L77.7956 37.0622Z" fill="#495057"/>
<path d="M66.8616 26.1283C66.4632 26.1283 66.0608 25.9759 65.7561 25.6712L62.2249 22.14C61.6155 21.5307 61.6155 20.5423 62.2249 19.9291C62.8343 19.3198 63.8226 19.3198 64.4358 19.9291L67.967 23.4603C68.5764 24.0697 68.5764 25.058 67.967 25.6712C67.6623 25.9759 67.264 26.1283 66.8616 26.1283Z" fill="#495057"/>
<path d="M29.0996 87.5232H28.7715C26.584 87.5232 24.8027 85.742 24.8027 83.5544V75.6716C24.8027 74.8084 25.5019 74.1091 26.3652 74.1091C27.2285 74.1091 27.9277 74.8084 27.9277 75.6716V83.5544C27.9277 84.0193 28.3066 84.3982 28.7714 84.3982H29.0995C29.5644 84.3982 29.9433 84.0193 29.9433 83.5544V75.5544C29.9433 74.6912 30.6425 73.9919 31.5058 73.9919C32.3691 73.9919 33.0683 74.6912 33.0683 75.5544V83.5544C33.0683 85.7419 31.2872 87.5232 29.0996 87.5232Z" fill="#495057"/>
<path d="M39.1316 87.5232H38.8191C36.6238 87.5232 34.8347 85.742 34.8347 83.5544V74.2497C34.8347 73.3865 35.5339 72.6872 36.3972 72.6872C37.2605 72.6872 37.9597 73.3865 37.9597 74.2497V83.5544C37.9597 84.0193 38.3464 84.3982 38.8191 84.3982H39.1316C39.6081 84.3982 39.991 84.0193 39.991 83.5544V71.2104C39.991 70.3472 40.6902 69.6479 41.5535 69.6479C42.4167 69.6479 43.116 70.3472 43.116 71.2104V83.5544C43.116 85.7419 41.3269 87.5232 39.1316 87.5232Z" fill="#495057"/>
<path d="M49.1786 87.5233H48.8583C46.6669 87.5233 44.8817 85.7381 44.8817 83.5467V69.2697C44.8817 68.4064 45.5809 67.7072 46.4442 67.7072C47.3075 67.7072 48.0067 68.4064 48.0067 69.2697V83.5467C48.0067 84.0154 48.3895 84.3982 48.8582 84.3982H49.1786C49.6473 84.3982 50.0301 84.0154 50.0301 83.5467V69.2697C50.0301 68.4064 50.7293 67.7072 51.5926 67.7072C52.4559 67.7072 53.1551 68.4064 53.1551 69.2697V83.5467C53.1551 85.7381 51.37 87.5233 49.1786 87.5233Z" fill="#495057"/>
<path d="M59.2246 87.5232H58.8965C56.709 87.5232 54.9277 85.742 54.9277 83.5544V69.2734C54.9277 68.4102 55.6269 67.7109 56.4902 67.7109C57.3535 67.7109 58.0527 68.4102 58.0527 69.2734V83.5544C58.0527 84.0193 58.4316 84.3982 58.8964 84.3982H59.2245C59.6894 84.3982 60.0683 84.0193 60.0683 83.5544V69.2734C60.0683 68.4102 60.7675 67.7109 61.6308 67.7109C62.4941 67.7109 63.1933 68.4102 63.1933 69.2734V83.5544C63.1933 85.7419 61.4122 87.5232 59.2246 87.5232Z" fill="#495057"/>
<path d="M36.4006 83.7653H31.5022C30.6389 83.7653 29.9397 83.066 29.9397 82.2028C29.9397 81.3395 30.6389 80.6403 31.5022 80.6403H36.4006C37.2639 80.6403 37.9631 81.3395 37.9631 82.2028C37.9631 83.066 37.2639 83.7653 36.4006 83.7653Z" fill="#495057"/>
<path d="M46.4436 83.7653H41.5452C40.6819 83.7653 39.9827 83.066 39.9827 82.2028C39.9827 81.3395 40.6819 80.6403 41.5452 80.6403H46.4436C47.3069 80.6403 48.0061 81.3395 48.0061 82.2028C48.0061 83.066 47.3069 83.7653 46.4436 83.7653Z" fill="#495057"/>
<path d="M56.4866 83.7653H51.5882C50.7249 83.7653 50.0257 83.066 50.0257 82.2028C50.0257 81.3395 50.7249 80.6403 51.5882 80.6403H56.4866C57.3499 80.6403 58.0491 81.3395 58.0491 82.2028C58.0491 83.066 57.3499 83.7653 56.4866 83.7653Z" fill="#495057"/>
<path d="M46.5966 24.0073H40.8974C40.0341 24.0073 39.3349 23.308 39.3349 22.4448C39.3349 21.5815 40.0341 20.8823 40.8974 20.8823H46.5966C47.4599 20.8823 48.1591 21.5815 48.1591 22.4448C48.1591 23.308 47.4599 24.0073 46.5966 24.0073Z" fill="#495057"/>
<path d="M6.1316 31.9682C5.73316 31.9682 5.33082 31.8159 5.0261 31.5112C4.41672 30.9018 4.41672 29.9135 5.0261 29.3003L29.2921 5.03431C29.9015 4.42493 30.8898 4.42493 31.503 5.03431C32.1124 5.64368 32.1124 6.632 31.503 7.2452L7.237 31.5112C6.93231 31.8159 6.53397 31.9682 6.1316 31.9682Z" fill="#495057"/>
<path d="M81.2406 32.1563C80.8422 32.1563 80.4398 32.0039 80.1351 31.6992L55.8071 7.37124C55.1977 6.76186 55.1977 5.77354 55.8071 5.16034C56.4165 4.55096 57.4048 4.55096 58.018 5.16034L82.346 29.4883C82.9554 30.0977 82.9554 31.086 82.346 31.6992C82.0413 32.0039 81.643 32.1563 81.2406 32.1563Z" fill="#495057"/>
<path d="M64.1426 50.1992C63.7363 50.1992 63.334 50.043 63.0293 49.7305L46.6273 33.0505C46.0218 32.4333 46.0296 31.445 46.6468 30.8396C47.2601 30.2341 48.2523 30.2419 48.8577 30.8591L65.2597 47.5391C65.8652 48.1563 65.8574 49.1446 65.2402 49.75C64.9355 50.0469 64.541 50.1992 64.1464 50.1992H64.1426Z" fill="#495057"/>
<path d="M48.0416 65.9492H45.5064C44.6431 65.9492 43.9439 65.25 43.9439 64.3867C43.9439 63.5234 44.6431 62.8242 45.5064 62.8242H48.0416C48.9049 62.8242 49.6041 63.5234 49.6041 64.3867C49.6041 65.25 48.9049 65.9492 48.0416 65.9492Z" fill="#495057"/>
<path d="M22.4436 45.3353C21.5803 45.3353 20.8811 44.636 20.8811 43.7728V40.8978C20.8811 40.0345 21.5803 39.3353 22.4436 39.3353C23.3069 39.3353 24.0061 40.0345 24.0061 40.8978V43.7728C24.0061 44.636 23.3069 45.3353 22.4436 45.3353Z" fill="#495057"/>
<path d="M65.0496 44.7022C64.1863 44.7022 63.4871 44.003 63.4871 43.1397V40.8975C63.4871 40.0342 64.1863 39.335 65.0496 39.335C65.9129 39.335 66.6121 40.0342 66.6121 40.8975V43.1397C66.6121 44.003 65.9129 44.7022 65.0496 44.7022Z" fill="#495057"/>
<path d="M29.7876 72.9092C28.4712 72.9092 27.1704 72.7178 25.9165 72.3428C20.1509 70.628 16.272 65.4248 16.272 59.3938C16.272 57.8938 16.522 56.4055 17.0142 54.9641C17.8111 52.6516 19.2408 50.5891 21.147 48.9914C21.272 48.8859 21.397 48.7805 21.5454 48.6789C23.5884 47.0891 26.0806 46.132 28.7134 45.9406C28.7837 45.925 28.8579 45.9133 28.9322 45.9094C29.2134 45.8937 29.4947 45.8781 29.7915 45.8781C31.9556 45.8781 34.1118 46.4016 36.0259 47.3976C40.5142 49.7257 43.3032 54.3234 43.3032 59.3936C43.3032 60.2061 43.2329 60.9991 43.0923 61.7569C42.4751 65.3507 40.3501 68.6046 37.2642 70.6631C35.5572 71.7959 33.69 72.499 31.7095 72.7569C31.1158 72.8546 30.4517 72.9132 29.7876 72.9132L29.7876 72.9092ZM29.311 49.0182C29.2407 49.0338 29.1665 49.0456 29.0923 49.0495C27.0181 49.1667 25.0493 49.9089 23.4009 51.1901C23.272 51.2838 23.2095 51.3385 23.147 51.3893C21.6782 52.6237 20.5767 54.2135 19.9634 55.9831C19.5845 57.0886 19.3931 58.2409 19.3931 59.3972C19.3931 64.0339 22.3736 68.03 26.8072 69.3503C28.2408 69.78 29.7838 69.9128 31.2486 69.6667C32.8033 69.4636 34.2291 68.9245 35.5298 68.0612C37.9009 66.4792 39.5337 63.9831 40.0103 61.2096C40.1196 60.6198 40.1743 60.0143 40.1743 59.3971C40.1743 55.4987 38.0337 51.9635 34.5805 50.1744C33.0883 49.401 31.4711 49.0064 29.7836 49.0064C29.6196 49.0064 29.4633 49.0142 29.3071 49.022L29.311 49.0182Z" fill="#495057"/>
<path d="M29.7876 66.6672C25.7798 66.6672 22.5181 63.4055 22.5181 59.3977C22.5181 55.3899 25.7798 52.1243 29.7876 52.1243C33.7954 52.1243 37.0571 55.386 37.0571 59.3977C37.0571 63.4055 33.7954 66.6672 29.7876 66.6672ZM29.7876 55.2492C27.5024 55.2492 25.6431 57.1086 25.6431 59.3976C25.6431 61.6867 27.5025 63.5421 29.7876 63.5421C32.0728 63.5421 33.9321 61.6827 33.9321 59.3976C33.9321 57.1124 32.0727 55.2492 29.7876 55.2492Z" fill="#495057"/>
<path d="M43.7406 42.3352C39.9711 42.3352 36.9008 39.2649 36.9008 35.4954C36.9008 31.7259 39.9711 28.6556 43.7406 28.6556C47.5101 28.6556 50.5804 31.7259 50.5804 35.4954C50.5804 39.2649 47.5101 42.3352 43.7406 42.3352ZM43.7406 31.7802C41.6937 31.7802 40.0258 33.4443 40.0258 35.495C40.0258 37.5419 41.6899 39.2098 43.7406 39.2098C45.7875 39.2098 47.4554 37.5457 47.4554 35.495C47.4554 33.4481 45.7913 31.7802 43.7406 31.7802Z" fill="#495057"/>
<path d="M57.6156 65.9412C57.2484 65.9412 56.7601 65.9295 56.2328 65.8436C55.6508 65.7889 54.9672 65.6365 54.2445 65.3943C49.807 63.9646 46.8148 59.8513 46.8148 55.1603C46.8148 49.2072 51.6586 44.3633 57.6118 44.3633C63.5649 44.3633 68.4088 49.2071 68.4088 55.1603C68.4088 59.3322 66.069 63.0431 62.3033 64.8517C61.7408 65.1408 61.0611 65.3908 60.2681 65.5978C59.4673 65.8244 58.565 65.9455 57.6119 65.9455L57.6156 65.9412ZM57.6156 47.4882C53.3851 47.4882 49.9437 50.9296 49.9437 55.1601C49.9437 58.4882 52.0648 61.4062 55.221 62.4218C55.7405 62.5937 56.2054 62.6992 56.6507 62.746C57.0374 62.8085 57.3265 62.8163 57.6155 62.8163C58.2796 62.8163 58.8967 62.7382 59.4593 62.582C60.0609 62.4257 60.5257 62.2578 60.9202 62.0546C63.6311 60.7538 65.2913 58.1171 65.2913 55.164C65.2913 50.9335 61.8499 47.4921 57.6194 47.4921L57.6156 47.4882Z" fill="#495057"/>
<path d="M57.6156 60.0972C54.8929 60.0972 52.6781 57.8824 52.6781 55.1597C52.6781 52.437 54.8929 50.2222 57.6156 50.2222C60.3383 50.2222 62.5531 52.437 62.5531 55.1597C62.5531 57.8824 60.3383 60.0972 57.6156 60.0972ZM57.6156 53.3511C56.6156 53.3511 55.8031 54.1636 55.8031 55.1636C55.8031 56.1636 56.6156 56.9761 57.6156 56.9761C58.6156 56.9761 59.4281 56.1636 59.4281 55.1636C59.4281 54.1636 58.6156 53.3511 57.6156 53.3511Z" fill="#495057"/>
<path d="M40.7216 65.9492C40.4286 65.9492 40.1357 65.8672 39.8739 65.6992C39.1474 65.2305 38.9403 64.2617 39.4091 63.539L49.1552 48.473C49.6239 47.7465 50.5927 47.5394 51.3154 48.0082C52.042 48.4769 52.249 49.4457 51.7802 50.1684L42.0341 65.2344C41.7373 65.6953 41.2333 65.9492 40.7216 65.9492Z" fill="#495057"/>
<path d="M22.4436 51.5233C22.053 51.5233 21.6623 51.3787 21.3577 51.0858C20.7366 50.4842 20.721 49.496 21.3186 48.8749L38.7016 30.8789C39.3032 30.2578 40.2954 30.2382 40.9125 30.8398C41.5336 31.4414 41.5493 32.4296 40.9516 33.0507L23.5686 51.0467C23.2639 51.3631 22.8538 51.5233 22.4436 51.5233Z" fill="#495057"/>
</svg>
