<svg width="40" height="40" viewBox="0 0 40 40" fill="none" xmlns="http://www.w3.org/2000/svg">
<path d="M3.39333 20.5367C3.27831 20.191 3.27831 19.8173 3.39333 19.4717C5.705 12.5167 12.2667 7.5 20 7.5C27.73 7.5 34.2883 12.5117 36.605 19.4633C36.7217 19.8083 36.7217 20.1817 36.605 20.5283C34.295 27.4833 27.7333 32.5 20 32.5C12.27 32.5 5.71 27.4883 3.39333 20.5367Z" stroke="#495057" stroke-width="1.5" stroke-linecap="round" stroke-linejoin="round"/>
<path d="M25 20C25 21.3261 24.4732 22.5979 23.5355 23.5355C22.5979 24.4732 21.3261 25 20 25C18.6739 25 17.4021 24.4732 16.4645 23.5355C15.5268 22.5979 15 21.3261 15 20C15 18.6739 15.5268 17.4021 16.4645 16.4645C17.4021 15.5268 18.6739 15 20 15C21.3261 15 22.5979 15.5268 23.5355 16.4645C24.4732 17.4021 25 18.6739 25 20Z" stroke="#495057" stroke-width="1.5" stroke-linecap="round" stroke-linejoin="round"/>
</svg>
