<svg width="81" height="61" viewBox="0 0 81 61" fill="none" xmlns="http://www.w3.org/2000/svg">
<path d="M44.406 0C44.0932 0.00121225 43.7836 0.0637437 43.4951 0.184023C43.2065 0.304303 42.9446 0.479976 42.7242 0.701011C42.5039 0.922046 42.3294 1.18411 42.2109 1.47225C42.0923 1.76039 42.0319 2.06896 42.0331 2.38034C42.0343 3.00679 42.2846 3.6073 42.7292 4.05071C43.1738 4.49411 43.7766 4.74437 44.406 4.74681H46.7277V7.92834C35.1953 11.0486 26.679 21.5537 26.679 33.9918C26.679 48.8789 38.8766 61 53.8465 61C68.8163 61 81 48.8789 81 33.9918C81 21.5545 72.4971 11.0493 60.9698 7.92834V4.74681H63.2916C63.921 4.74437 64.5238 4.49411 64.9684 4.05071C65.413 3.6073 65.6633 3.00679 65.6645 2.38034C65.6657 2.06896 65.6053 1.76039 65.4867 1.47225C65.3681 1.18411 65.1937 0.922045 64.9733 0.70101C64.753 0.479975 64.4911 0.304303 64.2025 0.184023C63.9139 0.0637437 63.6044 0.00121214 63.2916 0H44.406ZM51.4736 4.74681H56.2054V7.09011C55.4284 7.02289 54.6405 6.98364 53.8465 6.98364C53.0461 6.98364 52.2566 7.02218 51.4736 7.09011V4.74681ZM11.4877 9.87336C10.8583 9.87458 10.255 10.1237 9.80951 10.5662C9.36402 11.0087 9.11259 11.6087 9.11013 12.2352C9.10891 12.547 9.16947 12.8559 9.28835 13.1443C9.40722 13.4328 9.58209 13.6951 9.80293 13.9162C10.0238 14.1373 10.2862 14.3128 10.5753 14.4328C10.8644 14.5529 11.1745 14.6149 11.4877 14.6155H28.6843C28.9972 14.6143 29.3067 14.5518 29.5952 14.4315C29.8838 14.3112 30.1457 14.1356 30.3661 13.9145C30.5864 13.6935 30.7609 13.4314 30.8795 13.1433C30.998 12.8551 31.0584 12.5466 31.0572 12.2352C31.0548 11.6095 30.804 11.0102 30.3595 10.5678C29.915 10.1254 29.3129 9.87581 28.6843 9.87336H11.4877ZM53.8465 11.7304C66.2444 11.7304 76.2356 21.6705 76.2356 33.9918C76.2356 46.3131 66.2444 56.2578 53.8465 56.2578C41.4486 56.2578 31.4434 46.3131 31.4434 33.9918C31.4434 21.6705 41.4486 11.7304 53.8465 11.7304ZM53.5999 17.0839C53.287 17.0827 52.977 17.1428 52.6875 17.2608C52.398 17.3789 52.1347 17.5525 51.9127 17.7718C51.6906 17.9911 51.5141 18.2518 51.3932 18.539C51.2724 18.8263 51.2096 19.1343 51.2083 19.4457V36.1267C51.209 36.4385 51.2714 36.747 51.392 37.0348C51.5126 37.3225 51.689 37.5837 51.9111 37.8035C52.1332 38.0233 52.3967 38.1974 52.6865 38.3157C52.9763 38.434 53.2866 38.4943 53.5999 38.4932H63.3102C63.6234 38.4944 63.9338 38.4341 64.2236 38.3158C64.5134 38.1975 64.7769 38.0234 64.999 37.8036C65.2212 37.5838 65.3976 37.3225 65.5181 37.0348C65.6387 36.7471 65.7011 36.4385 65.7017 36.1267C65.7029 35.8138 65.6419 35.5037 65.5222 35.2143C65.4024 34.925 65.2263 34.6621 65.004 34.4408C64.7817 34.2195 64.5175 34.0442 64.2268 33.9251C63.9361 33.8059 63.6246 33.7451 63.3102 33.7464H55.9774V19.4457C55.975 18.8193 55.7235 18.2193 55.2781 17.7767C54.8326 17.3342 54.2292 17.0851 53.5999 17.0839ZM4.94593 20.7424C4.63269 20.743 4.32266 20.8051 4.03356 20.9251C3.74447 21.0451 3.48199 21.2207 3.26115 21.4418C3.04031 21.6629 2.86545 21.9252 2.74657 22.2136C2.62769 22.502 2.56713 22.811 2.56836 23.1228C2.57082 23.7492 2.82225 24.3492 3.26773 24.7918C3.71321 25.2343 4.31654 25.4834 4.94593 25.4846H22.1239C22.4367 25.4858 22.7468 25.4257 23.0363 25.3076C23.3258 25.1896 23.5891 25.016 23.8111 24.7967C24.0332 24.5774 24.2097 24.3166 24.3305 24.0294C24.4514 23.7422 24.5142 23.4341 24.5154 23.1228C24.5167 22.8098 24.4557 22.4997 24.3359 22.2104C24.2162 21.921 24.04 21.6581 23.8177 21.4369C23.5954 21.2156 23.3313 21.0403 23.0406 20.9211C22.7499 20.8019 22.4383 20.7412 22.1239 20.7424H4.94593ZM2.39619 31.6115C2.0814 31.6096 1.76936 31.6699 1.47811 31.7888C1.18686 31.9077 0.922184 32.0829 0.69937 32.3043C0.476557 32.5256 0.300028 32.7887 0.17999 33.0784C0.0599509 33.368 -0.0012179 33.6785 1.83718e-05 33.9918C0.00123768 34.3036 0.0642185 34.612 0.185356 34.8996C0.306493 35.1871 0.483408 35.448 0.705975 35.6674C0.928543 35.8867 1.19239 36.0603 1.48242 36.178C1.77245 36.2958 2.08297 36.3555 2.39619 36.3536H19.5742C19.887 36.3549 20.1971 36.2947 20.4865 36.1767C20.776 36.0587 21.0393 35.885 21.2614 35.6657C21.4835 35.4464 21.66 35.1857 21.7808 34.8985C21.9017 34.6113 21.9645 34.3032 21.9657 33.9918C21.967 33.6789 21.9059 33.3688 21.7862 33.0794C21.6664 32.7901 21.4903 32.5272 21.268 32.3059C21.0457 32.0846 20.7816 31.9093 20.4909 31.7901C20.2001 31.671 19.8886 31.6102 19.5742 31.6115H2.39619ZM4.94593 42.499C4.31654 42.5002 3.71321 42.7493 3.26773 43.1919C2.82225 43.6344 2.57082 44.2344 2.56836 44.8608C2.56713 45.1726 2.62769 45.4816 2.74657 45.77C2.86545 46.0584 3.04031 46.3207 3.26115 46.5418C3.48199 46.7629 3.74447 46.9385 4.03356 47.0585C4.32266 47.1785 4.63269 47.2406 4.94593 47.2412H22.1239C22.4383 47.2424 22.7499 47.1817 23.0406 47.0625C23.3313 46.9433 23.5954 46.768 23.8177 46.5467C24.04 46.3255 24.2162 46.0626 24.3359 45.7732C24.4557 45.4839 24.5167 45.1738 24.5154 44.8608C24.5142 44.5495 24.4514 44.2414 24.3305 43.9542C24.2097 43.667 24.0332 43.4063 23.8111 43.1869C23.5891 42.9676 23.3258 42.794 23.0363 42.676C22.7468 42.5579 22.4367 42.4978 22.1239 42.499H4.94593ZM11.4877 53.3681C11.1745 53.3687 10.8644 53.4307 10.5753 53.5508C10.2862 53.6708 10.0238 53.8463 9.80293 54.0674C9.58209 54.2885 9.40723 54.5508 9.28835 54.8393C9.16947 55.1277 9.10891 55.4366 9.11013 55.7484C9.11259 56.3749 9.36402 56.9749 9.80951 57.4174C10.255 57.8599 10.8583 58.109 11.4877 58.1102H28.6843C29.3129 58.1078 29.915 57.8582 30.3595 57.4158C30.804 56.9734 31.0548 56.3741 31.0572 55.7484C31.0584 55.437 30.998 55.1285 30.8795 54.8403C30.7609 54.5522 30.5864 54.2901 30.3661 54.0691C30.1457 53.848 29.8838 53.6724 29.5952 53.5521C29.3067 53.4318 28.9972 53.3693 28.6843 53.3681H11.4877Z" fill="#ADB5BD"/>
</svg>
