<svg width="64" height="64" viewBox="0 0 64 64" fill="none" xmlns="http://www.w3.org/2000/svg">
<path d="M32 0C25.671 0 19.4841 1.87677 14.2218 5.39297C8.95939 8.90918 4.85787 13.9069 2.43587 19.7541C0.013865 25.6014 -0.619842 32.0355 0.614885 38.2429C1.84961 44.4503 4.89732 50.1521 9.3726 54.6274C13.8479 59.1027 19.5497 62.1504 25.7571 63.3851C31.9645 64.6199 38.3986 63.9862 44.2459 61.5641C50.0931 59.1421 55.0908 55.0406 58.607 49.7782C62.1232 44.5159 64 38.329 64 32C64 23.5131 60.6286 15.3737 54.6274 9.37258C48.6263 3.37142 40.4869 0 32 0ZM32 60C26.4621 60 21.0486 58.3578 16.444 55.2812C11.8395 52.2045 8.25064 47.8315 6.13139 42.7151C4.01213 37.5988 3.45764 31.9689 4.53802 26.5375C5.61841 21.106 8.28515 16.1169 12.201 12.201C16.1169 8.28514 21.106 5.6184 26.5375 4.53801C31.969 3.45763 37.5988 4.01212 42.7152 6.13137C47.8315 8.25063 52.2045 11.8395 55.2812 16.444C58.3578 21.0486 60 26.4621 60 32C60 39.4261 57.05 46.548 51.799 51.799C46.548 57.05 39.4261 60 32 60ZM49.13 19V45C49.13 45.5304 48.9193 46.0391 48.5442 46.4142C48.1692 46.7893 47.6604 47 47.13 47C46.5996 47 46.0909 46.7893 45.7158 46.4142C45.3407 46.0391 45.13 45.5304 45.13 45V34H34V45C34 45.5304 33.7893 46.0391 33.4142 46.4142C33.0392 46.7893 32.5304 47 32 47C31.4696 47 30.9609 46.7893 30.5858 46.4142C30.2107 46.0391 30 45.5304 30 45V34H18.88V45C18.88 45.5304 18.6693 46.0391 18.2942 46.4142C17.9192 46.7893 17.4104 47 16.88 47C16.3496 47 15.8409 46.7893 15.4658 46.4142C15.0907 46.0391 14.88 45.5304 14.88 45V19C14.88 18.4696 15.0907 17.9609 15.4658 17.5858C15.8409 17.2107 16.3496 17 16.88 17C17.4104 17 17.9192 17.2107 18.2942 17.5858C18.6693 17.9609 18.88 18.4696 18.88 19V30H30V19C30 18.4696 30.2107 17.9609 30.5858 17.5858C30.9609 17.2107 31.4696 17 32 17C32.5304 17 33.0392 17.2107 33.4142 17.5858C33.7893 17.9609 34 18.4696 34 19V30H45.13V19C45.13 18.7374 45.1817 18.4773 45.2823 18.2346C45.3828 17.992 45.5301 17.7715 45.7158 17.5858C45.9015 17.4001 46.122 17.2528 46.3646 17.1522C46.6073 17.0517 46.8674 17 47.13 17C47.3927 17 47.6527 17.0517 47.8954 17.1522C48.138 17.2528 48.3585 17.4001 48.5442 17.5858C48.7299 17.7715 48.8773 17.992 48.9778 18.2346C49.0783 18.4773 49.13 18.7374 49.13 19Z" fill="#495057"/>
</svg>
