<svg width="71" height="94" viewBox="0 0 71 94" fill="none" xmlns="http://www.w3.org/2000/svg">
<path d="M53.6412 34.3091C53.6412 24.1251 45.356 15.8401 35.1722 15.8401C24.9884 15.8401 16.7032 24.1253 16.7032 34.3091C16.7032 44.4929 24.9884 52.7781 35.1722 52.7781C45.356 52.7781 53.6412 44.4929 53.6412 34.3091ZM19.8252 34.3091C19.8252 25.8482 26.708 18.9651 35.1692 18.9651C43.6301 18.9651 50.5132 25.8479 50.5132 34.3091C50.5132 42.77 43.6304 49.6531 35.1692 49.6531C26.7083 49.6531 19.8252 42.7703 19.8252 34.3091Z" fill="#495057"/>
<path d="M35.1722 93.7502C35.6253 93.7502 36.0511 93.5549 36.348 93.215C37.7347 91.6252 70.344 54.106 70.344 35.172C70.344 15.777 54.567 0 35.172 0C15.777 0 0 15.777 0 35.172C0 54.102 32.609 91.625 33.996 93.215C34.2929 93.5548 34.723 93.7502 35.1722 93.7502ZM35.1722 3.12516C52.8442 3.12516 67.2192 17.5002 67.2192 35.1722C67.2192 51.0082 41.0822 82.7972 35.1722 89.7812C29.262 82.7968 3.1252 51.0082 3.1252 35.1722C3.1252 17.5002 17.5002 3.12516 35.1722 3.12516Z" fill="#495057"/>
</svg>
