<svg width="83" height="91" viewBox="0 0 83 91" fill="none" xmlns="http://www.w3.org/2000/svg">
<path fill-rule="evenodd" clip-rule="evenodd" d="M25 24C25 15.1641 32.1641 8 41 8C49.8359 8 57 15.1641 57 24C57 32.8359 49.8359 40 41 40C32.1641 40 25 32.8359 25 24ZM41 0C27.746 0 17 10.746 17 24C17 37.254 27.746 48 41 48C54.254 48 65 37.254 65 24C65 10.746 54.254 0 41 0ZM8 82C8 69.852 17.8516 60 30 60H53C65.148 60 75 69.8516 75 82V83H8V82ZM30 52C13.43 52 0 65.43 0 82V85C0 88.3125 2.6875 91 6 91H77C80.3125 91 83 88.3125 83 85V82C83 65.43 69.57 52 53 52H30Z" fill="#495057"/>
</svg>
