<svg width="40" height="40" viewBox="0 0 40 40" fill="none" xmlns="http://www.w3.org/2000/svg">
<path d="M26.7314 3.18958H6.47339C6.03265 3.18958 5.67596 3.54657 5.67596 3.98694V16.28C5.67596 16.7203 6.03265 17.0774 6.47339 17.0774H26.7314C27.1722 17.0774 27.5288 16.7203 27.5288 16.28V3.98694C27.5288 3.54657 27.1722 3.18958 26.7314 3.18958ZM25.934 15.4826H7.27075V4.78436H25.934V15.4826Z" fill="#495057"/>
<path d="M26.7314 21.729C26.2906 21.729 25.934 22.0861 25.934 22.5264V29.9023C25.934 30.3427 26.2906 30.6997 26.7314 30.6997C27.1722 30.6997 27.5288 30.3427 27.5288 29.9023V22.5264C27.5288 22.0861 27.1722 21.729 26.7314 21.729Z" fill="#495057"/>
<path d="M39.6362 8.87177L36.1467 5.38226L36.1455 5.3811L34.8751 4.11078C34.5637 3.79926 34.0591 3.79926 33.7476 4.11078C33.4361 4.42224 33.4361 4.92688 33.7476 5.23834L34.7848 6.27557V11.0311C34.7848 12.6431 36.0961 13.9544 37.7081 13.9544H38.275V31.6014C38.275 32.4233 37.6061 33.0919 36.7845 33.0919C35.963 33.0919 35.2941 32.4233 35.2941 31.6014V25.9383C35.2941 23.6174 33.4057 21.729 31.0851 21.729H30.7184V2.83331C30.7184 1.27081 29.4476 0 27.8855 0H5.32013C3.75726 0 2.48639 1.27081 2.48639 2.83331V35.3509H0.797363C0.356628 35.3509 0 35.7079 0 36.1483V39.0723C0 39.5127 0.356628 39.8698 0.797363 39.8698H32.4074C32.8481 39.8698 33.2048 39.5127 33.2048 39.0723V36.1483C33.2048 35.7079 32.8481 35.3509 32.4074 35.3509H30.7184V23.3238H31.0851C32.5266 23.3238 33.6993 24.4965 33.6993 25.9383V31.6014C33.6993 33.3026 35.0831 34.6867 36.7845 34.6867C38.486 34.6867 39.8698 33.3026 39.8698 31.6014V9.43555C39.8698 9.22412 39.7856 9.0213 39.6362 8.87177ZM31.61 38.275H1.59479V36.9457H3.28381H29.921H31.61V38.275ZM4.08118 35.3509V2.83331C4.08118 2.15039 4.63721 1.59479 5.32013 1.59479H27.8855C28.5684 1.59479 29.1236 2.15039 29.1236 2.83331V35.3509H4.08118ZM37.7081 12.3596C36.9753 12.3596 36.3796 11.7635 36.3796 11.0311V7.87036L38.275 9.76575V12.3596H37.7081Z" fill="#495057"/>
<path d="M17.4002 19.9099C17.4002 19.4696 17.0435 19.1125 16.6028 19.1125C16.162 19.1125 15.8054 19.4696 15.8054 19.9099C15.8054 20.7545 15.1147 21.6799 14.3149 22.7515C13.2092 24.2337 11.8325 26.0781 11.8325 28.5454C11.8325 31.1759 13.9723 33.3157 16.6028 33.3157C19.2333 33.3157 21.3732 31.1759 21.3732 28.5454C21.3732 26.0781 19.9964 24.2337 18.8906 22.7515C18.0909 21.6799 17.4002 20.7545 17.4002 19.9099ZM16.6028 31.7209C14.8515 31.7209 13.4272 30.2963 13.4272 28.5454C13.4272 26.6076 14.5283 25.1323 15.5928 23.7054C15.9534 23.2225 16.3061 22.7499 16.6028 22.2722C16.8995 22.7499 17.2523 23.2225 17.6128 23.7054C18.6772 25.1323 19.7784 26.6076 19.7784 28.5454C19.7784 30.2963 18.3541 31.7209 16.6028 31.7209Z" fill="#495057"/>
</svg>
