<svg width="71" height="71" viewBox="0 0 71 71" fill="none" xmlns="http://www.w3.org/2000/svg">
<path fill-rule="evenodd" clip-rule="evenodd" d="M29.168 8.332C17.66 8.332 8.332 17.6601 8.332 29.168C8.332 40.672 17.6601 50 29.168 50C40.672 50 50 40.6719 50 29.168C50 17.66 40.6719 8.332 29.168 8.332ZM0 29.168C0 13.059 13.059 0 29.168 0C45.273 0 58.332 13.059 58.332 29.168C58.332 45.273 45.273 58.332 29.168 58.332C13.059 58.332 0 45.273 0 29.168Z" fill="#F8F9FA"/>
<path fill-rule="evenodd" clip-rule="evenodd" d="M44.969 44.969C46.5979 43.344 49.2346 43.344 50.8635 44.969L69.6135 63.719C71.2385 65.3479 71.2385 67.9846 69.6135 69.6135C67.9846 71.2385 65.3479 71.2385 63.719 69.6135L44.969 50.8635C43.344 49.2346 43.344 46.5979 44.969 44.969Z" fill="#F8F9FA"/>
</svg>
