<svg width="56" height="80" viewBox="0 0 56 80" fill="none" xmlns="http://www.w3.org/2000/svg">
<path fill-rule="evenodd" clip-rule="evenodd" d="M53.0651 60.2582C51.7487 58.7934 49.3034 57.0434 45.1432 57.0434C41.612 57.0434 38.5729 57.9106 35.3541 58.8286C32.0963 59.7583 28.7408 60.7114 24.4401 60.938C24.5221 59.4927 24.3424 58.1724 23.8971 56.8911C23.319 55.227 22.3893 53.9028 21.4049 52.5005C19.6197 49.9575 17.7721 47.3286 17.7721 42.1215C17.7721 38.4653 17.7916 37.7192 17.8112 36.9965C17.8307 36.3286 17.8463 35.6957 17.8463 32.9301C17.8463 29.7543 16.8698 27.0707 15.0221 25.1606C13.2994 23.3794 10.9049 22.3989 8.27601 22.3989C5.45571 22.3989 3.08461 23.5356 1.59631 25.5981C-0.247491 28.1567 -0.505291 31.8559 0.881469 36.0081L9.58067 62.1171C9.32286 62.8749 9.17833 63.6874 9.17833 64.5351C9.17833 68.2695 11.9283 71.3749 15.5103 71.9374C15.6627 73.5897 17.0533 74.8905 18.7486 74.8905H20.5103V75.9374C20.5103 77.8124 22.0337 79.3358 23.9087 79.3358H46.0767C47.9517 79.3358 49.4751 77.8124 49.4751 75.9374V74.8749C51.2603 74.7616 52.8384 73.8788 53.9478 72.3671C54.9947 70.9413 55.5689 69.0351 55.5689 67.0077C55.5689 64.453 54.6783 62.0551 53.0651 60.2582ZM3.11606 35.2662C1.97936 31.8482 2.11606 28.9029 3.51059 26.9732C4.54579 25.5396 6.24109 24.7505 8.28399 24.7505C11.8778 24.7505 15.5028 27.2817 15.5028 32.9341C15.5028 35.6685 15.4872 36.2857 15.4676 36.938C15.4481 37.6763 15.4247 38.4419 15.4247 42.1294C15.4247 44.7817 15.8622 47.1021 16.7567 49.231C17.5379 51.0904 18.5731 52.5591 19.4833 53.856C20.7372 55.6451 21.8114 57.1724 22.0575 59.3326C20.6942 57.9264 18.788 57.0514 16.6786 57.0514C14.5067 57.0514 12.5497 57.9811 11.1786 59.4616L3.11606 35.2662ZM11.5341 64.5392C11.5341 61.7033 13.8388 59.3986 16.6747 59.3986C19.5106 59.3986 21.8153 61.7033 21.8153 64.5392C21.8153 67.3751 19.5106 69.6798 16.6747 69.6798C13.8388 69.6798 11.5341 67.3712 11.5341 64.5392ZM46.0771 76.9882H23.9091C23.3309 76.9882 22.8622 76.5195 22.8622 75.9413V74.8944H47.1242V75.9413C47.1242 76.5155 46.6552 76.9882 46.0771 76.9882ZM52.0498 70.9804C51.5263 71.6914 50.585 72.5429 49.0693 72.5429L18.7493 72.539C18.3547 72.539 18.0188 72.2812 17.8977 71.9257C21.4485 71.3398 24.1672 68.2499 24.1672 64.5351C24.1672 64.1289 24.1359 63.7344 24.0734 63.3437C24.0774 63.332 24.0852 63.3164 24.0891 63.3047C28.9016 63.1094 32.6516 62.0391 35.9991 61.0859C39.0538 60.2148 41.9405 59.3906 45.1436 59.3906C50.7217 59.3906 53.2217 63.2148 53.2217 67.0039C53.2178 68.5195 52.792 69.9686 52.0498 70.9804Z" fill="#495057"/>
<path fill-rule="evenodd" clip-rule="evenodd" d="M7.77605 21.3522C8.09246 21.4069 8.40496 21.4343 8.71746 21.4343C10.5378 21.4343 12.28 20.4929 13.7019 18.7195C15.0847 16.9929 16.1042 14.5789 16.573 11.9265C17.0417 9.27417 16.9089 6.65697 16.198 4.55927C15.3464 2.03587 13.6902 0.438169 11.5339 0.0592694C9.54946 -0.292291 8.06116 0.938179 7.65106 3.27017L5.22916 17.0042C5.04557 18.0511 5.1276 18.9534 5.47916 19.6878C5.77994 20.3128 6.42446 21.11 7.77605 21.3522ZM11.1277 2.37224C12.7566 2.6613 13.5769 4.13004 13.9754 5.31364C14.5535 7.01674 14.655 9.27844 14.2605 11.5167C13.866 13.755 12.9949 15.8448 11.8699 17.2472C11.0887 18.2199 9.81521 19.3214 8.18631 19.0363C7.73709 18.9582 7.64334 18.7629 7.59647 18.6691C7.46756 18.3957 7.44803 17.9504 7.54179 17.4152L9.96369 3.68125C10.2254 2.21245 10.8112 2.31754 11.1277 2.37224Z" fill="#495057"/>
<path fill-rule="evenodd" clip-rule="evenodd" d="M18.7141 64.5392C18.7141 63.4181 17.8 62.5001 16.675 62.5001C15.5539 62.5001 14.6359 63.4142 14.6359 64.5392C14.6359 65.6603 15.5499 66.5783 16.675 66.5783C17.7961 66.5744 18.7141 65.6604 18.7141 64.5392Z" fill="#495057"/>
</svg>
