<svg width="78" height="100" viewBox="0 0 78 100" fill="none" xmlns="http://www.w3.org/2000/svg">
<path d="M76.1 19.7385L39.6 0.338535C38.8 -0.161465 37.8 -0.0614647 36.9 0.338535L1.5 19.7385C0.6 20.2385 0 21.1385 0 22.2385V47.6385C0 68.9385 12.6 88.1385 32.1 96.7385L37 98.8385C37.4 99.0385 37.7 99.0385 38.1 99.0385C38.5 99.0385 38.9 98.9385 39.2 98.8385L44.7 96.4385C64.6 88.0385 77.5 68.7385 77.5 47.1385V22.2385C77.6 21.2385 77 20.2385 76.1 19.7385ZM72 23.9385V47.1385C72 66.4385 60.5 83.7385 42.7 91.2385L38.2 93.1385L34.4 91.5385C17 83.9385 5.7 66.6385 5.7 47.6385V23.9385L38.3 6.03854L72 23.9385ZM21.4 49.4385C20.9 48.8385 20.7 48.1385 20.7 47.3385C20.8 46.5385 21.1 45.9385 21.7 45.4385C22.9 44.4385 24.7 44.5385 25.7 45.7385L33.5 54.8385L53.7 38.5385C54.3 38.0385 55 37.8385 55.8 37.9385C56.5 38.0385 57.2 38.3385 57.7 38.9385C58.2 39.5385 58.4 40.2385 58.3 41.0385C58.2 41.7385 57.9 42.4385 57.3 42.9385L34.9 61.0385C34.4 61.4385 33.8 61.6385 33.1 61.6385C32.3 61.6385 31.5 61.3385 31 60.6385L21.4 49.4385Z" fill="#495057"/>
</svg>
