<svg width="83" height="68" viewBox="0 0 83 68" fill="none" xmlns="http://www.w3.org/2000/svg">
<path d="M41.4202 0C30.439 0.013232 19.9114 4.38136 12.1465 12.1463C4.38159 19.9111 0.0134601 30.4388 0.000228114 41.42C-0.0293588 50.2923 2.8199 58.9348 8.12023 66.05C8.35145 66.3622 8.65307 66.6155 9.00059 66.7893C9.3481 66.963 9.7317 67.0524 10.1202 67.05H72.7202C73.1088 67.0524 73.4924 66.963 73.8399 66.7893C74.1874 66.6155 74.489 66.3622 74.7202 66.05C80.0206 58.9348 82.8698 50.2923 82.8402 41.42C82.827 30.4388 78.4589 19.9111 70.694 12.1463C62.9291 4.38136 52.4014 0.013232 41.4202 0ZM71.4202 62.06H11.4202C7.70943 56.6974 5.525 50.4275 5.10023 43.92H9.24023C9.90327 43.92 10.5392 43.6566 11.008 43.1878C11.4768 42.7189 11.7402 42.083 11.7402 41.42C11.7402 40.757 11.4768 40.1211 11.008 39.6522C10.5392 39.1834 9.90327 38.92 9.24023 38.92H5.09023C5.70915 30.1521 9.47209 21.9023 15.6873 15.6871C21.9026 9.47186 30.1524 5.70892 38.9202 5.09V9.23C38.9202 9.89304 39.1836 10.5289 39.6525 10.9978C40.1213 11.4666 40.7572 11.73 41.4202 11.73C42.0833 11.73 42.7192 11.4666 43.188 10.9978C43.6568 10.5289 43.9202 9.89304 43.9202 9.23V5.09C52.6881 5.70892 60.9379 9.47186 67.1531 15.6871C73.3684 21.9023 77.1313 30.1521 77.7502 38.92H73.6102C72.9472 38.92 72.3113 39.1834 71.8425 39.6522C71.3736 40.1211 71.1102 40.757 71.1102 41.42C71.1102 42.083 71.3736 42.7189 71.8425 43.1878C72.3113 43.6566 72.9472 43.92 73.6102 43.92H77.7502C77.3225 50.4285 75.1346 56.6984 71.4202 62.06ZM58.8302 25.06L46.4202 34.53C44.9699 33.4653 43.2194 32.8876 41.4202 32.88C39.5762 32.8589 37.7737 33.4284 36.2766 34.5051C34.7794 35.5819 33.666 37.1095 33.0993 38.8644C32.5326 40.6194 32.5423 42.5096 33.127 44.2587C33.7117 46.0077 34.8407 47.5238 36.3488 48.5851C37.8569 49.6465 39.6651 50.1974 41.5089 50.1574C43.3526 50.1174 45.1352 49.4884 46.5958 48.3626C48.0565 47.2368 49.1186 45.6731 49.6268 43.9003C50.135 42.1276 50.0626 40.2387 49.4202 38.51L61.8102 29.13C62.3407 28.7322 62.6913 28.1399 62.7851 27.4836C62.8789 26.8272 62.7081 26.1604 62.3102 25.63C61.9124 25.0996 61.3202 24.7489 60.6638 24.6551C60.0074 24.5614 59.3407 24.7322 58.8102 25.13L58.8302 25.06ZM41.4202 45.01C40.7102 45.01 40.0161 44.7995 39.4257 44.405C38.8354 44.0105 38.3752 43.4498 38.1035 42.7938C37.8318 42.1378 37.7607 41.416 37.8992 40.7196C38.0377 40.0232 38.3796 39.3836 38.8817 38.8815C39.3838 38.3794 40.0235 38.0375 40.7199 37.899C41.4162 37.7605 42.1381 37.8316 42.7941 38.1033C43.45 38.375 44.0107 38.8351 44.4052 39.4255C44.7997 40.0159 45.0102 40.71 45.0102 41.42C45.0102 42.3721 44.632 43.2853 43.9587 43.9585C43.2855 44.6318 42.3724 45.01 41.4202 45.01Z" fill="#495057"/>
</svg>
