<svg width="509" height="112" viewBox="0 0 509 112" fill="none" xmlns="http://www.w3.org/2000/svg">
<path d="M21.7617 21.9912V64.0322H42.7822C45.6631 64.0322 48.373 63.4951 50.9121 62.4209C53.4512 61.2979 55.6729 59.7842 57.5771 57.8799C59.4814 55.9756 60.9707 53.7539 62.0449 51.2148C63.168 48.627 63.7295 45.8926 63.7295 43.0117C63.7295 40.1309 63.168 37.4209 62.0449 34.8818C60.9707 32.2939 59.4814 30.0479 57.5771 28.1436C55.6729 26.2393 53.4512 24.75 50.9121 23.6758C48.373 22.5527 45.6631 21.9912 42.7822 21.9912H21.7617ZM21.7617 106H0.741211V0.970703H42.7822C46.6396 0.970703 50.3506 1.4834 53.915 2.50879C57.4795 3.48535 60.7998 4.90137 63.876 6.75684C67.001 8.56348 69.833 10.7607 72.3721 13.3486C74.96 15.8877 77.1572 18.7197 78.9639 21.8447C80.8193 24.9697 82.2354 28.3145 83.2119 31.8789C84.2373 35.4434 84.75 39.1543 84.75 43.0117C84.75 46.625 84.2861 50.1406 83.3584 53.5586C82.4795 56.9766 81.1855 60.2236 79.4766 63.2998C77.8164 66.376 75.7656 69.208 73.3242 71.7959C70.8828 74.3838 68.1484 76.6299 65.1211 78.5342L76.7666 106H54.4277L45.2725 84.833L21.7617 84.9795V106ZM160.409 64.0322V43.0117C160.409 40.1309 159.848 37.4209 158.725 34.8818C157.65 32.2939 156.161 30.0479 154.257 28.1436C152.353 26.2393 150.106 24.75 147.519 23.6758C144.979 22.5527 142.27 21.9912 139.389 21.9912C136.508 21.9912 133.773 22.5527 131.186 23.6758C128.646 24.75 126.425 26.2393 124.521 28.1436C122.616 30.0479 121.103 32.2939 119.979 34.8818C118.905 37.4209 118.368 40.1309 118.368 43.0117V64.0322H160.409ZM181.43 106H160.409V84.9795H118.368V106H97.4209V43.0117C97.4209 37.2012 98.5195 31.7568 100.717 26.6787C102.914 21.5518 105.893 17.084 109.652 13.2754C113.461 9.4668 117.904 6.46387 122.982 4.2666C128.109 2.06934 133.578 0.970703 139.389 0.970703C145.199 0.970703 150.644 2.06934 155.722 4.2666C160.849 6.46387 165.316 9.4668 169.125 13.2754C172.934 17.084 175.937 21.5518 178.134 26.6787C180.331 31.7568 181.43 37.2012 181.43 43.0117V106ZM271.664 106H199.667V0.970703H271.664V21.9912H220.688V43.0117H255.185V64.0322H220.688V84.9795H271.664V106ZM370.541 53.4854C370.541 58.3193 369.906 62.9824 368.637 67.4746C367.416 71.918 365.658 76.0928 363.363 79.999C361.068 83.8564 358.334 87.3965 355.16 90.6191C351.986 93.793 348.446 96.5273 344.54 98.8223C340.634 101.117 336.435 102.899 331.942 104.169C327.499 105.39 322.86 106 318.026 106H286.386V0.970703H318.026C322.86 0.970703 327.499 1.60547 331.942 2.875C336.435 4.0957 340.634 5.85352 344.54 8.14844C348.446 10.4434 351.986 13.2021 355.16 16.4248C358.334 19.5986 361.068 23.1387 363.363 27.0449C365.658 30.9023 367.416 35.0771 368.637 39.5693C369.906 44.0127 370.541 48.6514 370.541 53.4854ZM349.521 53.4854C349.521 49.1396 348.69 45.0625 347.03 41.2539C345.419 37.4453 343.173 34.125 340.292 31.293C337.46 28.4121 334.115 26.1416 330.258 24.4814C326.449 22.8213 322.372 21.9912 318.026 21.9912H307.553V84.9795H318.026C322.372 84.9795 326.449 84.1738 330.258 82.5625C334.115 80.9023 337.46 78.6562 340.292 75.8242C343.173 72.9434 345.419 69.5986 347.03 65.79C348.69 61.9326 349.521 57.8311 349.521 53.4854ZM446.347 64.0322V43.0117C446.347 40.1309 445.785 37.4209 444.662 34.8818C443.588 32.2939 442.099 30.0479 440.194 28.1436C438.29 26.2393 436.044 24.75 433.456 23.6758C430.917 22.5527 428.207 21.9912 425.326 21.9912C422.445 21.9912 419.711 22.5527 417.123 23.6758C414.584 24.75 412.362 26.2393 410.458 28.1436C408.554 30.0479 407.04 32.2939 405.917 34.8818C404.843 37.4209 404.306 40.1309 404.306 43.0117V64.0322H446.347ZM467.367 106H446.347V84.9795H404.306V106H383.358V43.0117C383.358 37.2012 384.457 31.7568 386.654 26.6787C388.852 21.5518 391.83 17.084 395.59 13.2754C399.398 9.4668 403.842 6.46387 408.92 4.2666C414.047 2.06934 419.516 0.970703 425.326 0.970703C431.137 0.970703 436.581 2.06934 441.659 4.2666C446.786 6.46387 451.254 9.4668 455.062 13.2754C458.871 17.084 461.874 21.5518 464.071 26.6787C466.269 31.7568 467.367 37.2012 467.367 43.0117V106ZM508.09 98.5293C508.09 100.287 507.772 101.947 507.138 103.51C506.503 105.023 505.624 106.342 504.501 107.465C503.378 108.588 502.06 109.467 500.546 110.102C499.032 110.785 497.396 111.127 495.639 111.127C493.93 111.127 492.294 110.785 490.731 110.102C489.218 109.467 487.875 108.588 486.703 107.465C485.58 106.342 484.677 105.023 483.993 103.51C483.358 101.947 483.041 100.287 483.041 98.5293C483.041 96.8203 483.358 95.209 483.993 93.6953C484.677 92.1816 485.58 90.8633 486.703 89.7402C487.875 88.6172 489.218 87.7383 490.731 87.1035C492.294 86.4199 493.93 86.0781 495.639 86.0781C497.396 86.0781 499.032 86.4199 500.546 87.1035C502.06 87.7383 503.378 88.6172 504.501 89.7402C505.624 90.8633 506.503 92.1816 507.138 93.6953C507.772 95.209 508.09 96.8203 508.09 98.5293Z" fill="#F8F9FA"/>
</svg>
