<svg width="100" height="100" viewBox="0 0 100 100" fill="none" xmlns="http://www.w3.org/2000/svg">
<path d="M98.8718 46.5385C98.6496 45.4359 98.3077 44.3504 97.8718 43.3077C97.4445 42.2906 96.906 41.3077 96.2906 40.3846C95.6752 39.4701 94.9658 38.6154 94.188 37.8376C93.4103 37.0598 92.5556 36.3504 91.641 35.735C90.718 35.1111 89.7436 34.5812 88.718 34.1538C87.6838 33.7179 86.5983 33.3761 85.4872 33.1538C84.3504 32.9231 83.188 32.8034 82.0257 32.8034C80.8633 32.8034 79.6923 32.9231 78.5641 33.1538C77.4615 33.3761 76.3761 33.7179 75.3333 34.1538C74.3162 34.5812 73.3333 35.1197 72.4103 35.735C72.0598 35.9658 71.7265 36.2222 71.3932 36.4786C71.0598 36.2222 70.7265 35.9744 70.3761 35.735C69.453 35.1111 68.4786 34.5812 67.453 34.1538C66.4188 33.7179 65.3333 33.3761 64.2222 33.1538C63.094 32.9231 61.9231 32.8034 60.7607 32.8034C59.5983 32.8034 58.4274 32.9231 57.2992 33.1538C56.1966 33.3761 55.1111 33.7179 54.0684 34.1538C53.0513 34.5812 52.0684 35.1197 51.1453 35.735C50.7778 35.9829 50.4188 36.2479 50.0684 36.5214C49.718 36.2479 49.359 35.9829 49 35.735C48.0769 35.1111 47.1026 34.5812 46.0769 34.1538C45.0427 33.7179 43.9573 33.3761 42.8462 33.1538C41.718 32.9231 40.547 32.8034 39.3846 32.8034C38.2222 32.8034 37.0513 32.9231 35.9231 33.1538C34.8205 33.3761 33.735 33.7179 32.6923 34.1538C31.6752 34.5812 30.6923 35.1197 29.7692 35.735C29.4017 35.9829 29.0513 36.2393 28.7094 36.5128C28.3675 36.2393 28.0085 35.9829 27.6496 35.735C26.7265 35.1111 25.7521 34.5812 24.7265 34.1538C23.6923 33.7179 22.6068 33.3761 21.4957 33.1538C20.3675 32.9231 19.1966 32.8034 18.0342 32.8034C16.8718 32.8034 15.7009 32.9231 14.5727 33.1538C13.4701 33.3761 12.3846 33.7179 11.3419 34.1538C10.3248 34.5812 9.34188 35.1197 8.41881 35.735C7.50428 36.3504 6.64957 37.0598 5.8718 37.8376C5.09402 38.6154 4.38462 39.4701 3.76923 40.3846C3.17949 41.3077 2.64957 42.2906 2.22222 43.3077C1.78633 44.3419 1.44445 45.4274 1.22222 46.5385C0.991454 47.6667 0.871796 48.8376 0.871796 50C0.871796 51.1624 0.991454 52.3333 1.22222 53.4615C1.44445 54.5641 1.78633 55.6496 2.22222 56.6838C2.64957 57.7009 3.18804 58.6838 3.80342 59.6068C4.4188 60.5128 5.12821 61.3761 5.90598 62.1539C6.68376 62.9316 7.53846 63.641 8.45299 64.2564C9.37607 64.8803 10.3504 65.4103 11.3761 65.8376C12.4103 66.2735 13.4957 66.6154 14.6068 66.8376C15.735 67.0684 16.906 67.188 18.0684 67.188C19.2308 67.188 20.4017 67.0684 21.5299 66.8376C22.6325 66.6154 23.718 66.2735 24.7607 65.8376C25.7778 65.4103 26.7607 64.8718 27.6838 64.2564C28.0427 64.0085 28.4017 63.7521 28.7436 63.4786C29.0855 63.7521 29.4444 64.0085 29.8034 64.2564C30.7265 64.8803 31.7009 65.4103 32.7265 65.8376C33.7607 66.2735 34.8462 66.6154 35.9487 66.8376C37.0769 67.0684 38.2479 67.188 39.4103 67.188C40.5727 67.188 41.7436 67.0684 42.8718 66.8376C43.9744 66.6154 45.0598 66.2735 46.1026 65.8376C47.1197 65.4103 48.1026 64.8718 49.0256 64.2564C49.3932 64.0085 49.7521 63.7436 50.1026 63.4701C50.453 63.7436 50.812 64.0085 51.1795 64.2564C52.1026 64.8803 53.0769 65.4103 54.1026 65.8376C55.1368 66.2735 56.2222 66.6154 57.3333 66.8376C58.4615 67.0684 59.6325 67.188 60.7949 67.188C61.9573 67.188 63.1282 67.0684 64.2564 66.8376C65.359 66.6154 66.4444 66.2735 67.4872 65.8376C68.5043 65.4103 69.4872 64.8718 70.4103 64.2564C70.7607 64.0256 71.094 63.7692 71.4274 63.5128C71.7607 63.7692 72.094 64.0171 72.4445 64.2564C73.3675 64.8803 74.3419 65.4103 75.3675 65.8376C76.4017 66.2735 77.4872 66.6154 78.5898 66.8376C79.718 67.0684 80.8889 67.188 82.0513 67.188C83.2137 67.188 84.3846 67.0684 85.5128 66.8376C86.6154 66.6154 87.7009 66.2735 88.7436 65.8376C89.7607 65.4103 90.7436 64.8718 91.6667 64.2564C92.5812 63.641 93.4359 62.9316 94.2137 62.1539C94.9915 61.3761 95.7009 60.5214 96.3163 59.6068C96.9402 58.6838 97.4701 57.7094 97.8975 56.6838C98.3334 55.6496 98.6752 54.5641 98.8975 53.453C99.1282 52.3162 99.2479 51.1538 99.2479 49.9915C99.2222 48.8376 99.1026 47.6667 98.8718 46.5385ZM10.5641 38.8889C11.2821 38.4017 12.0427 37.9915 12.8376 37.6496C13.6496 37.3077 14.4957 37.0427 15.3504 36.8718C16.2308 36.6923 17.1453 36.5983 18.0513 36.5983C18.9573 36.5983 19.8718 36.6923 20.7521 36.8718C21.6154 37.0513 22.4615 37.3077 23.265 37.6496C24.0598 37.9829 24.8291 38.4017 25.5385 38.8889C25.6923 38.9915 25.8462 39.1026 26 39.2137C25.6923 39.5897 25.4017 39.9829 25.1368 40.3846C24.5128 41.3077 23.9829 42.2821 23.5556 43.3077C23.1197 44.3419 22.7778 45.4274 22.5556 46.5385C22.3248 47.6667 22.2051 48.8376 22.2051 50C22.2051 51.1624 22.3248 52.3333 22.5556 53.4615C22.7778 54.5641 23.1197 55.6496 23.5556 56.6838C23.9829 57.7009 24.5214 58.6838 25.1368 59.6068C25.4103 60.0086 25.7009 60.4017 26.0085 60.7778C25.8547 60.8889 25.7009 61 25.5385 61.1111C24.8205 61.5983 24.0598 62.0085 23.265 62.3504C22.453 62.6923 21.6068 62.9573 20.7521 63.1282C19.8718 63.3077 18.9573 63.4017 18.0513 63.4017C17.1453 63.4017 16.2308 63.3077 15.3504 63.1282C14.4872 62.9487 13.641 62.6923 12.8376 62.3504C12.0427 62.0171 11.2821 61.5983 10.5641 61.1111C9.8547 60.6325 9.18804 60.0769 8.5812 59.4786C7.97436 58.8718 7.42735 58.2051 6.94872 57.4957C6.46154 56.7778 6.05128 56.0171 5.7094 55.2222C5.36752 54.4103 5.10257 53.5641 4.93163 52.7094C4.75214 51.8291 4.65812 50.9145 4.65812 50.0085C4.65812 49.1026 4.75214 48.188 4.93163 47.3077C5.11111 46.4444 5.36752 45.5983 5.7094 44.7949C6.04274 44 6.46154 43.2308 6.94872 42.5214C7.42735 41.812 7.98291 41.1453 8.5812 40.5385C9.18804 39.9231 9.8547 39.3675 10.5641 38.8889ZM28.2906 57.4957C27.8034 56.7778 27.3932 56.0171 27.0513 55.2222C26.7094 54.4103 26.4444 53.5641 26.2735 52.7094C26.094 51.8291 26 50.9145 26 50.0085C26 49.1026 26.094 48.188 26.2735 47.3077C26.453 46.4444 26.7094 45.5983 27.0513 44.7949C27.3846 44 27.8034 43.2308 28.2906 42.5214C28.4274 42.3162 28.5812 42.1111 28.735 41.906C28.8889 42.1111 29.0342 42.3162 29.1795 42.5214C29.6667 43.2393 30.0769 44 30.4188 44.7949C30.7607 45.6068 31.0256 46.453 31.1966 47.3077C31.3761 48.188 31.4701 49.1026 31.4701 50.0085C31.4701 50.9145 31.3761 51.8291 31.1966 52.7094C31.0171 53.5727 30.7607 54.4188 30.4188 55.2222C30.0855 56.0171 29.6667 56.7863 29.1795 57.4957C29.0427 57.7009 28.8889 57.906 28.735 58.1111C28.5812 57.9145 28.4274 57.7094 28.2906 57.4957ZM32.3162 59.6154C32.9402 58.6923 33.4701 57.7179 33.8974 56.6923C34.3333 55.6581 34.6752 54.5727 34.8974 53.4615C35.1282 52.3333 35.2479 51.1624 35.2479 50C35.2479 48.8376 35.1282 47.6667 34.8974 46.5385C34.6752 45.4359 34.3333 44.3504 33.8974 43.3077C33.4701 42.2906 32.9316 41.3077 32.3162 40.3846C32.0427 39.9829 31.7521 39.5897 31.4444 39.2137C31.5983 39.1026 31.7521 38.9915 31.906 38.8889C32.6239 38.4017 33.3846 37.9915 34.1795 37.6496C34.9915 37.3077 35.8376 37.0427 36.6923 36.8718C37.5727 36.6923 38.4872 36.5983 39.3932 36.5983C40.2991 36.5983 41.2137 36.6923 42.094 36.8718C42.9573 37.0513 43.8034 37.3077 44.6068 37.6496C45.4017 37.9829 46.1709 38.4017 46.8803 38.8889C47.0427 39 47.2051 39.1111 47.359 39.2308C47.0598 39.6068 46.7692 39.9915 46.5043 40.3846C45.8803 41.3077 45.3504 42.2821 44.9231 43.3077C44.4872 44.3419 44.1453 45.4274 43.9231 46.5385C43.6923 47.6667 43.5727 48.8376 43.5727 50C43.5727 51.1624 43.6923 52.3333 43.9231 53.4615C44.1453 54.5641 44.4872 55.6496 44.9231 56.6838C45.3504 57.7009 45.8889 58.6838 46.5043 59.6068C46.7778 60.0086 47.0598 60.3932 47.3675 60.7692C47.2051 60.8889 47.0513 61 46.8803 61.1111C46.1624 61.5983 45.4017 62.0085 44.6068 62.3504C43.7949 62.6923 42.9487 62.9573 42.094 63.1282C41.2137 63.3077 40.2991 63.4017 39.3932 63.4017C38.4872 63.4017 37.5727 63.3077 36.6923 63.1282C35.8291 62.9487 34.9829 62.6923 34.1795 62.3504C33.3846 62.0171 32.6239 61.5983 31.906 61.1111C31.7521 61.0085 31.5897 60.8974 31.4444 60.7778C31.7521 60.4103 32.0427 60.0171 32.3162 59.6154ZM49.6581 57.4957C49.1709 56.7778 48.7607 56.0171 48.4188 55.2222C48.0769 54.4103 47.812 53.5641 47.641 52.7094C47.4615 51.8291 47.3675 50.9145 47.3675 50.0085C47.3675 49.1026 47.4615 48.188 47.641 47.3077C47.8205 46.4444 48.0769 45.5983 48.4188 44.7949C48.7521 44 49.1709 43.2308 49.6581 42.5214C49.7949 42.3162 49.9402 42.1197 50.0855 41.9231C50.2308 42.1197 50.3761 42.3162 50.5128 42.5214C51 43.2393 51.4103 44 51.7521 44.7949C52.094 45.6068 52.359 46.453 52.5299 47.3077C52.7094 48.188 52.8034 49.1026 52.8034 50.0085C52.8034 50.9145 52.7094 51.8291 52.5299 52.7094C52.3504 53.5727 52.094 54.4188 51.7521 55.2222C51.4188 56.0171 51 56.7863 50.5128 57.4957C50.3761 57.7009 50.2308 57.8974 50.0855 58.094C49.9402 57.8974 49.7949 57.7009 49.6581 57.4957ZM53.6581 59.6154C54.2821 58.6923 54.812 57.7179 55.2393 56.6923C55.6752 55.6581 56.0171 54.5727 56.2393 53.4615C56.4701 52.3333 56.5897 51.1624 56.5897 50C56.5897 48.8376 56.4701 47.6667 56.2393 46.5385C56.0171 45.4359 55.6752 44.3504 55.2393 43.3077C54.812 42.2906 54.2735 41.3077 53.6581 40.3846C53.3932 39.9829 53.1026 39.5983 52.8034 39.2222C52.9573 39.1026 53.1197 38.9915 53.2821 38.8803C54 38.3932 54.7607 37.9829 55.5556 37.641C56.3675 37.2991 57.2137 37.0342 58.0684 36.8632C58.9487 36.6838 59.8633 36.5897 60.7692 36.5897C61.6752 36.5897 62.5897 36.6838 63.4701 36.8632C64.3333 37.0427 65.1795 37.2991 65.9829 37.641C66.7778 37.9744 67.547 38.3932 68.2564 38.8803C68.3932 38.9744 68.5299 39.0684 68.6581 39.1624C68.3419 39.5556 68.0427 39.9573 67.7607 40.3761C67.1368 41.2991 66.6068 42.2735 66.1795 43.2991C65.7436 44.3333 65.4017 45.4188 65.1795 46.5299C64.9487 47.6581 64.8291 48.8291 64.8291 49.9915C64.8291 51.1538 64.9487 52.3248 65.1795 53.453C65.4017 54.5556 65.7436 55.641 66.1795 56.6752C66.6068 57.6923 67.1453 58.6752 67.7607 59.5983C68.0427 60.0171 68.3419 60.4188 68.6667 60.812C68.5299 60.9145 68.3932 61.0086 68.2564 61.1026C67.5385 61.5897 66.7778 62 65.9829 62.3419C65.1709 62.6838 64.3248 62.9487 63.4701 63.1197C62.5897 63.2991 61.6752 63.3932 60.7692 63.3932C59.8633 63.3932 58.9487 63.2991 58.0684 63.1197C57.2051 62.9402 56.359 62.6838 55.5556 62.3419C54.7607 62.0086 54 61.5897 53.2821 61.1026C53.1197 60.9915 52.9573 60.8803 52.8034 60.7607C53.1026 60.4017 53.3846 60.0085 53.6581 59.6154ZM70.9145 57.4957C70.4274 56.7778 70.0171 56.0171 69.6752 55.2222C69.3333 54.4103 69.0684 53.5641 68.8974 52.7094C68.718 51.8291 68.6239 50.9145 68.6239 50.0085C68.6239 49.1026 68.718 48.188 68.8974 47.3077C69.0769 46.4444 69.3333 45.5983 69.6752 44.7949C70.0086 44 70.4274 43.2308 70.9145 42.5214C71.0684 42.2906 71.2308 42.0684 71.4017 41.8462C71.5727 42.0684 71.735 42.2906 71.8889 42.5214C72.3761 43.2393 72.7863 44 73.1282 44.7949C73.4701 45.6068 73.7351 46.453 73.906 47.3077C74.0855 48.188 74.1795 49.1026 74.1795 50.0085C74.1795 50.9145 74.0855 51.8291 73.906 52.7094C73.7265 53.5727 73.4701 54.4188 73.1282 55.2222C72.7949 56.0171 72.3761 56.7863 71.8889 57.4957C71.735 57.7265 71.5727 57.9487 71.4017 58.1709C71.2308 57.9487 71.0684 57.7265 70.9145 57.4957ZM75.0256 59.6154C75.6496 58.6923 76.1795 57.7179 76.6068 56.6923C77.0427 55.6581 77.3846 54.5727 77.6068 53.4615C77.8376 52.3333 77.9573 51.1624 77.9573 50C77.9573 48.8376 77.8376 47.6667 77.6068 46.5385C77.3846 45.4359 77.0427 44.3504 76.6068 43.3077C76.1795 42.2906 75.641 41.3077 75.0256 40.3846C74.7436 39.9658 74.4445 39.5641 74.1282 39.1709C74.265 39.0769 74.4017 38.9744 74.5385 38.8803C75.2564 38.3932 76.0171 37.9829 76.812 37.641C77.6239 37.2991 78.4701 37.0342 79.3248 36.8632C80.2051 36.6838 81.1197 36.5897 82.0257 36.5897C82.9316 36.5897 83.8462 36.6838 84.7265 36.8632C85.5898 37.0427 86.4359 37.2991 87.2393 37.641C88.0342 37.9744 88.8034 38.3932 89.5128 38.8803C90.2222 39.359 90.8889 39.9145 91.4957 40.5214C92.1026 41.1282 92.6496 41.7949 93.1282 42.5043C93.6154 43.2222 94.0257 43.9829 94.3675 44.7778C94.7094 45.5897 94.9744 46.4359 95.1453 47.2906C95.3248 48.1709 95.4188 49.0855 95.4188 49.9915C95.4188 50.8974 95.3248 51.812 95.1453 52.6923C94.9658 53.5556 94.7094 54.4017 94.3675 55.2051C94.0342 56 93.6154 56.7692 93.1282 57.4786C92.6496 58.188 92.094 58.8547 91.4957 59.4615C90.8975 60.0684 90.2222 60.6154 89.5128 61.094C88.7949 61.5812 88.0342 61.9915 87.2393 62.3333C86.4274 62.6752 85.5812 62.9402 84.7265 63.1111C83.8462 63.2906 82.9316 63.3846 82.0257 63.3846C81.1197 63.3846 80.2051 63.2906 79.3248 63.1111C78.4615 62.9316 77.6154 62.6752 76.812 62.3333C76.0171 62 75.2564 61.5812 74.5385 61.094C74.4017 61 74.265 60.906 74.1282 60.8034C74.4445 60.4359 74.7436 60.0342 75.0256 59.6154Z" fill="#1D2024"/>
</svg>
