<svg width="100" height="100" viewBox="0 0 100 100" fill="none" xmlns="http://www.w3.org/2000/svg">
<g clip-path="url(#clip0_1_69)">
<path d="M50 0C22.3875 0 0 22.3875 0 50C0 77.6125 22.3875 100 50 100C77.6125 100 100 77.6125 100 50C100 22.3875 77.6125 0 50 0ZM50 3.25C75.8167 3.25 96.7458 24.1792 96.7458 50C96.7458 75.8167 75.8208 96.7458 50 96.7458C24.1792 96.7458 3.25417 75.8167 3.25417 50C3.25417 24.1833 24.1833 3.25 50 3.25ZM47.175 5.875C45.8 5.93333 44.425 6.05 43.0417 6.2L42.5958 18.4667C43.5769 18.3007 44.5637 18.17 45.5542 18.075L45.8458 9.79167L45.7917 9.22083L45.9708 9.7625L48.7375 15.9667H51.2625L54.0292 9.76667L54.1958 9.22083L54.1542 9.79167L54.4458 18.075C55.4125 18.1667 56.4167 18.3 57.4042 18.4667L56.95 6.2C55.5763 6.0452 54.1977 5.9368 52.8167 5.875L50.0958 12.6458L50 13.1458L49.9042 12.6458L47.175 5.875ZM75.075 13.475L68.6458 23.5917C69.4583 24.2167 70.5292 25.1375 71.2167 25.7667L77.2708 22.625L77.6542 22.3375L77.3667 22.7292L74.2333 28.7833C74.9125 29.5125 75.8917 30.6917 76.4417 31.4083L86.5667 24.975C85.9457 24.1717 85.3067 23.3826 84.65 22.6083L78.2375 26.8333L77.8 27.2167L78.125 26.7375L80.9583 21.0875L78.9583 19.0875L73.3083 21.9208L72.8292 22.2458L73.2083 21.8042L77.45 15.3917C76.7 14.7583 75.9875 14.1792 75.075 13.475ZM22.9167 15.7708C21.4167 15.925 20.2583 16.95 17.1125 20.4583C16.0216 21.6946 14.9697 22.9646 13.9583 24.2667L22.6 32.4625C25.4625 29.2958 26.625 28.1208 28.8833 25.7417C30.4792 24.0542 31.3833 22.1167 29.7833 20.2542C28.9167 19.2458 27.4583 19.025 26.2417 19.525L26.125 19.5667L26.1667 19.4583C26.3169 18.9055 26.301 18.3206 26.121 17.7767C25.9409 17.2328 25.6047 16.754 25.1542 16.4C24.841 16.1531 24.482 15.9708 24.098 15.8635C23.7139 15.7562 23.3124 15.722 22.9167 15.7708ZM22.9417 18.3333C23.5083 18.1792 24.0958 18.5833 24.225 19.1667C24.3583 19.75 23.9917 20.3 23.5833 20.7583C22.6667 21.8 19.2875 25.3333 19.2875 25.3333L17.6125 23.7375C19.35 21.6125 21.2 19.6792 22.0375 18.9125C22.2888 18.6506 22.5987 18.4521 22.9417 18.3333ZM50 20.3458C42.66 20.3426 35.5799 23.0628 30.1302 27.9798C24.6806 32.8968 21.2491 39.6608 20.5 46.9625V46.9708C20.0292 51.6033 20.6551 56.2816 22.3271 60.6274C23.9992 64.9732 26.6704 68.8645 30.1249 71.9867C33.5793 75.109 37.72 77.3745 42.2122 78.6C46.7043 79.8256 51.4219 79.9769 55.9833 79.0417C62.6695 77.6673 68.6762 74.0267 72.9883 68.7353C77.3004 63.4438 79.6535 56.826 79.65 50C79.6423 42.1391 76.5158 34.6024 70.9569 29.0443C65.398 23.4862 57.8609 20.3608 50 20.3542V20.3458ZM26.9292 21.3542C27.125 21.3542 27.3292 21.4083 27.5125 21.5333C27.8792 21.7792 28.0458 22.2 27.9542 22.6167C27.8458 23.1125 27.4333 23.5792 27.1 23.9417L22.7458 28.6083L20.9958 26.9417C20.9958 26.9417 24.275 23.475 25.35 22.3625C25.775 21.9208 26.05 21.6542 26.3417 21.5083C26.5223 21.4145 26.7257 21.3619 26.9292 21.3542ZM50 24.2417C53.3837 24.2378 56.7349 24.9015 59.8618 26.1946C62.9887 27.4877 65.8298 29.3849 68.2224 31.7775C70.6151 34.1702 72.5123 37.0113 73.8054 40.1382C75.0985 43.265 75.7622 46.6163 75.7583 50H50V75.7583C46.6163 75.7622 43.265 75.0985 40.1382 73.8054C37.0113 72.5123 34.1702 70.6151 31.7775 68.2224C29.3849 65.8298 27.4877 62.9887 26.1946 59.8618C24.9015 56.7349 24.2378 53.3837 24.2417 50H50V24.2417Z" fill="#1D2024"/>
</g>
<defs>
<clipPath id="clip0_1_69">
<rect width="100" height="100" fill="white"/>
</clipPath>
</defs>
</svg>
