<svg width="100" height="100" viewBox="0 0 100 100" fill="none" xmlns="http://www.w3.org/2000/svg">
<g clip-path="url(#clip0_1_53)">
<path d="M51.019 49.754L53.1975 48.4188L81.026 67.4631L51.019 49.754Z" fill="#1D2024"/>
<path d="M49.4027 48.6999L47.3647 47.5053L49.6838 11.1736L49.4027 48.6999Z" fill="#1D2024"/>
<path d="M46.9431 48.5594L37.7372 56.2193L48.7702 49.6838L46.9431 48.5594Z" fill="#1D2024"/>
<path d="M49.9649 0.421646C22.558 0.421646 0.351379 22.6283 0.351379 50.0351C0.351379 77.442 22.558 99.6486 49.9649 99.6486C77.3718 99.6486 99.5784 77.442 99.5784 50.0351C99.5784 22.6283 77.3718 0.421646 49.9649 0.421646ZM49.9649 96.9079C38.6507 96.9079 28.0394 93.1131 20.0984 86.2263C12.4385 79.48 6.46522 68.728 4.98947 57.3436C8.50317 79.0583 27.2663 95.5727 49.9649 95.5727C75.123 95.5727 95.5025 75.1933 95.5025 50.0351C95.5025 39.5643 91.6374 29.3746 85.6641 21.7147C91.6374 26.3528 96.8377 39.494 96.8377 50.0351C96.9079 75.9663 75.896 96.9079 49.9649 96.9079ZM45.6782 46.4512L49.6838 5.34083H49.9649H50.0351L50.4568 48.6297L57.3436 44.4835L50.4568 5.34083C74.9122 5.55165 94.6592 25.5095 94.6592 49.9649C94.6592 57.8356 92.6212 65.2143 89.0372 71.6796L58.0464 45.7484L55.0949 47.435L88.8264 72.1012C88.7562 72.2417 88.6859 72.3823 88.5453 72.5228L50.5973 50.6676V58.3275L88.2642 72.8742C80.4638 85.8749 66.1982 94.5889 49.9649 94.5889C33.7316 94.5889 19.4659 85.8749 11.6655 72.9445L49.3324 58.3275V50.5973L11.3844 72.3823C11.3141 72.2417 11.2439 72.1012 11.1033 71.9606L44.6943 47.3647L41.7428 45.6781L10.8222 71.4687C7.30851 65.0738 5.27056 57.7653 5.27056 49.8946C5.27056 25.5798 24.7365 5.83275 48.9108 5.27056L42.8672 44.8349L45.6782 46.4512ZM49.9649 3.09206C24.104 3.09206 3.09207 24.104 3.09207 49.9649C3.09207 60.506 6.88687 70.4146 12.7196 79.0583C14.6873 82.7829 16.7955 85.0316 19.6767 88.0534C8.50317 79.1286 1.26494 65.3549 1.26494 49.9649C1.26494 23.0499 23.0499 1.26493 49.9649 1.26493C76.8798 1.26493 99.0864 24.0337 98.2432 49.9649C97.6107 24.6662 75.4744 3.09206 49.9649 3.09206Z" fill="#1D2024"/>
</g>
<defs>
<clipPath id="clip0_1_53">
<rect width="100" height="100" fill="white"/>
</clipPath>
</defs>
</svg>
