<svg width="100" height="100" viewBox="0 0 100 100" fill="none" xmlns="http://www.w3.org/2000/svg">
<g clip-path="url(#clip0_1_19)">
<path d="M54.5548 73.8656C55.1348 73.422 56.4313 72.9785 57.1477 72.6714C57.1136 71.5797 56.6701 70.5561 56.943 69.6349C57.4207 67.9973 58.5466 67.2808 59.6383 67.1443C59.7066 67.1784 59.7748 67.3149 59.7066 67.349C59.0925 67.929 58.8536 68.7479 58.7513 69.6349C58.7172 69.9761 58.6489 71.0338 58.956 71.7844C59.6042 71.4432 61.1737 70.8973 61.6854 70.7949C61.7537 69.7032 61.9243 68.6455 62.2313 67.8608C62.8454 66.3255 64.2102 65.0972 65.5749 65.8137C65.6431 65.8478 65.7114 65.9843 65.6431 66.0184C64.7902 66.3255 64.2443 67.2126 63.7666 68.2361C63.6302 68.5432 63.1525 70.1808 63.6984 70.522C63.6984 70.522 63.7325 70.522 63.7325 70.5561C64.7219 70.3514 64.8925 70.4538 65.9502 70.3514C66.1208 69.2938 66.5984 68.3726 67.0078 67.6902C67.622 66.4961 69.2255 65.5408 70.6585 66.3937C70.7267 66.4278 70.7949 66.5984 70.6926 66.5984C69.7032 66.8031 69.0549 67.4514 68.7137 68.0314C68.5432 68.3043 67.622 69.5667 68.0996 70.0785H68.2702C69.1232 70.0443 69.7373 70.2149 70.6244 70.3855C70.8973 69.7373 71.1361 69.669 71.4091 69.3279C72.3985 68.1337 74.0703 67.7243 74.6503 68.8502C74.7185 68.9185 74.7185 69.0549 74.6503 69.0549C74.1385 69.1232 73.2856 69.3961 72.8762 69.9079C72.7738 70.0102 72.5009 70.3173 72.2279 70.8973C73.3879 71.7844 74.0362 72.5008 74.3432 73.695C74.4115 73.8997 74.5138 75.1279 74.1044 74.5138C72.2279 72.1597 69.7032 71.6479 65.9161 72.0232C61.856 72.3985 59.9795 73.0126 55.9195 75.1962C58.1713 77.2091 54.7936 79.188 54.2477 76.2197C52.2688 79.2221 50.1876 75.435 52.8489 74.8891C50.1194 72.2279 53.8383 70.9997 54.5548 73.8656Z" fill="#1D2024"/>
<path d="M61.4807 60.9007C62.9478 60.4231 64.5514 59.9113 65.3702 59.7407C65.5067 57.3524 67.7584 54.3842 70.4197 55.4077C70.522 55.4418 70.5902 55.5783 70.4879 55.6124C69.8055 55.8171 67.622 57.8983 68.3726 59.2289C68.9185 59.2631 70.4197 59.2289 70.8632 59.263C71.4432 56.636 73.7291 54.7936 76.3221 55.9877C76.4244 56.0218 76.4927 56.1924 76.3903 56.1924C75.3668 56.363 73.0467 58.0007 73.3197 59.3995C73.7973 59.4336 75.0938 59.8772 75.9127 60.3207C76.2197 59.6725 76.5609 59.4336 76.868 59.0925C77.9939 57.8983 80.3139 57.796 80.9962 58.956C81.0645 59.0242 81.0645 59.1607 80.9962 59.1607C80.0068 59.1266 79.1198 59.263 78.2668 60.0136C78.1303 60.116 77.8574 60.5254 77.5503 61.1054C78.3692 61.549 79.2903 62.4019 79.4609 63.2207C79.5974 63.6302 79.6656 63.9713 79.5974 64.3808C79.5633 64.4831 79.3586 64.3808 79.2903 64.3125C77.1409 61.9584 72.3985 60.4913 67.7926 61.0713C64.7219 61.4466 61.7196 62.2996 59.2289 63.3913C60.0819 62.6407 60.8325 61.8219 61.4807 60.9007ZM54.7253 66.2231C54.5206 66.4278 54.3159 66.5984 54.1453 66.8031C55.2371 68.3043 53.4971 69.4985 52.9853 67.9973C51.6888 69.3961 50.6653 67.7584 51.5183 67.0761C52.61 66.9055 53.7018 66.6326 54.7253 66.2231Z" fill="#1D2024"/>
<path d="M53.9747 86.3528C54.2818 86.0116 55.0324 85.3634 55.4077 85.0563C54.2477 83.248 54.8959 80.928 56.0218 80.7574C56.0901 80.7915 56.1242 80.8939 56.0901 80.9621C55.783 81.4057 55.6465 83.7939 56.5336 84.3057C56.9771 83.9986 57.8301 83.3845 58.2054 83.2822C57.5571 81.0986 58.683 78.1644 60.8666 78.6421C60.9348 78.6762 60.9689 78.8127 60.9348 78.8468C59.1607 79.768 59.1266 82.4974 59.6042 82.8045C60.3207 82.5998 61.1054 82.2927 61.8901 82.2245C62.2313 79.3245 64.7902 78.028 66.0866 78.7786C66.1549 78.8127 66.189 78.9833 66.1549 78.9833C65.4384 78.5739 62.7431 81.3374 63.6302 82.1563C64.2443 82.1221 64.9608 82.3951 65.6772 82.5657C65.9843 80.9621 68.2361 79.6315 69.1914 80.6551C69.2596 80.7233 69.2596 80.8598 69.2255 80.8598C68.3726 81.0304 67.2467 81.8151 67.0761 83.3163C68.8843 84.1692 68.6796 85.9434 68.3726 85.4657C66.6667 83.2139 63.0501 83.5892 60.2866 84.1692C58.683 84.5104 56.4312 86.0457 55.4759 87.1375C58.376 88.5022 55.7489 91.0611 54.5206 88.161C52.5077 91.7093 50.5288 88.4681 52.883 87.5128C50.017 85.2951 52.9853 83.7939 53.9747 86.3528Z" fill="#1D2024"/>
<path d="M24.7697 83.6575C21.9038 80.348 19.4814 76.7656 17.5367 73.1491H48.9253V83.6575H24.7697Z" fill="#1D2024"/>
<path d="M64.0396 32.3098H87.1034V41.3511H64.0396V32.3098Z" fill="#1D2024"/>
<path d="M87.1034 18.5943L80.2798 16.172L72.3303 14.5684L63.3913 12.6237L55.1007 11.9754H48.7888V21.4944H87.0693L87.1034 18.5943Z" fill="#1D2024"/>
<path d="M16.0696 7.91539C16.9908 7.60833 17.912 7.33538 18.8673 7.06244C19.2085 6.96009 19.5496 6.85773 19.9249 6.7895C20.3002 6.72126 20.6755 6.68714 21.0508 6.7895L21.1873 6.85773C21.3238 6.92597 21.392 7.02832 21.4603 7.16479C21.5626 7.40362 21.5967 7.64245 21.6308 7.91539C21.6991 8.46128 21.6991 9.00717 21.6308 9.55306C21.5967 9.99659 21.5285 10.4401 21.3579 10.8154C21.2897 10.986 21.1873 11.1225 21.0508 11.259C20.9485 11.3613 20.8461 11.4637 20.7438 11.5319C20.505 11.7025 20.3002 11.839 20.0273 11.9413C19.4132 12.2143 18.7991 12.419 18.1508 12.6237C17.059 12.999 15.9673 13.3743 14.8755 13.7496V15.7625C14.3296 15.9673 13.7837 16.2061 13.2378 16.4108V8.83658C14.1931 8.52952 15.1143 8.22245 16.0696 7.91539ZM14.8755 12.3849C15.9673 12.0096 17.059 11.6343 18.1849 11.259C18.5261 11.1566 18.8673 11.0543 19.1743 10.9178L19.4132 10.7813L19.5155 10.7131L19.6179 10.6107L19.7202 10.5084L19.7885 10.406L19.8908 10.2013C19.9249 10.0648 19.9591 9.96247 19.9591 9.826C19.9932 9.48482 19.9932 9.17776 19.8908 8.83658L19.8226 8.66599L19.7544 8.52952L19.652 8.42716L19.5155 8.35893L19.3791 8.32481H19.2426H19.1061C18.7649 8.35893 18.4579 8.46128 18.1167 8.56363C17.0249 8.90482 15.9331 9.28011 14.8414 9.62129L14.8755 12.3849ZM28.7615 4.46947C29.5121 4.333 30.2286 4.19652 30.9792 4.12829C31.218 4.09417 31.4568 4.09417 31.6957 4.09417C31.798 4.09417 31.9345 4.12829 32.0369 4.16241C32.1392 4.19652 32.2074 4.23064 32.3098 4.29888C32.378 4.36711 32.4463 4.40123 32.5145 4.46947C32.5827 4.5377 32.6169 4.64006 32.651 4.70829C32.7192 4.84477 32.7533 4.94712 32.7533 5.08359C32.8216 5.52713 32.8557 6.00478 32.8898 6.48243C32.9239 7.02832 32.9239 7.54009 32.8898 8.05186C32.8898 8.25657 32.8898 8.4954 32.8557 8.70011C32.8216 9.10952 32.8216 9.51894 32.7192 9.92836C32.6851 10.0307 32.651 10.1331 32.6169 10.2013C32.5486 10.3378 32.4804 10.4742 32.378 10.6107L32.1733 10.9178L31.8663 11.1225C31.7298 11.1907 31.6274 11.2248 31.491 11.2931C30.9451 11.4637 30.3992 11.566 29.8533 11.7025C28.7274 11.9413 27.6015 12.146 26.4756 12.3849C25.9297 12.4872 25.3838 12.5896 24.8379 12.6578C24.7015 12.6919 24.5309 12.6919 24.3944 12.6919L24.0532 12.6578C23.9509 12.6237 23.8826 12.5896 23.8144 12.5554L23.6438 12.419L23.5073 12.2143L23.3026 11.0884V8.05186C23.3368 7.71068 23.3709 7.33538 23.4391 6.9942L23.5415 6.68714C23.6097 6.51655 23.6779 6.38008 23.7803 6.24361L24.0191 5.97066L24.2238 5.80007C24.4285 5.6636 24.6674 5.52713 24.9403 5.42477L26.1685 5.04948C26.9533 4.81065 27.8403 4.64006 28.7615 4.46947ZM27.9086 6.00478L26.1344 6.4142C25.998 6.44831 25.8615 6.51655 25.725 6.55067L25.5885 6.65302L25.4521 6.75538L25.3497 6.85773L25.2474 6.96009L25.145 7.06244L25.0768 7.19891C25.0085 7.30127 24.9744 7.43774 24.9403 7.54009C24.8379 7.98363 24.8379 8.42716 24.8379 8.8707C24.8379 9.34835 24.8379 9.826 24.9062 10.2695L24.9744 10.4401L25.0768 10.6107L25.2132 10.7472L25.3497 10.8495L25.5203 10.9178L25.6909 10.9519H25.8956C26.0321 10.9519 26.1344 10.9519 26.2368 10.9178C26.9191 10.8154 27.6015 10.679 28.2839 10.5425C28.8298 10.4401 29.4098 10.3037 29.9557 10.1672C30.058 10.1331 30.1945 10.0989 30.2968 10.0648L30.4674 9.96247L30.638 9.86012L30.7745 9.72365L30.911 9.58718L31.0133 9.41659L31.0815 9.246L31.1498 9.07541C31.2521 8.56363 31.218 8.08598 31.218 7.57421C31.218 7.30127 31.218 7.02832 31.1839 6.7895L31.1498 6.58479C31.1157 6.44831 31.0815 6.31184 31.0133 6.17537L30.9451 6.0389L30.8768 5.93654L30.7745 5.83419L30.7063 5.80007L30.5698 5.73184L30.4333 5.69772L30.1604 5.6636C29.8533 5.6636 29.5804 5.69772 29.3074 5.73184C28.8298 5.83419 28.3521 5.93654 27.9086 6.00478ZM39.1675 3.2071C40.0205 3.13886 40.8734 3.07063 41.7264 3.07063H42.2723C42.477 3.07063 42.6476 3.10475 42.8182 3.2071C42.8864 3.24122 42.9546 3.27534 42.9887 3.30945C43.1252 3.41181 43.2276 3.51416 43.2958 3.68475C43.364 3.78711 43.3982 3.92358 43.4323 4.02593C43.5005 4.29888 43.5005 4.60594 43.5005 4.87888C43.5005 5.25418 43.5005 5.59536 43.4664 5.97066C43.4664 6.10713 43.4323 6.24361 43.3982 6.38008L43.3299 6.51655C43.2617 6.61891 43.2276 6.68714 43.1593 6.7895L42.9887 6.92597C42.9205 6.96009 42.8523 7.02832 42.7499 7.06244C42.6476 7.09656 42.5111 7.13068 42.4087 7.16479L41.4876 7.3695L42.4087 7.88127C42.5452 7.98363 42.6476 8.05186 42.7499 8.15422L42.8523 8.29069C42.9887 8.4954 43.0911 8.70011 43.1935 8.93893C43.3299 9.34835 43.3982 9.75777 43.3982 10.1672C42.8523 10.2013 42.3064 10.2013 41.7605 10.2354C41.7264 9.92836 41.6923 9.65541 41.5899 9.34835L41.4534 9.00717L41.3852 8.83658L41.2828 8.70011L41.1805 8.56363L41.044 8.46128L40.8734 8.35893C40.7711 8.32481 40.6687 8.29069 40.5664 8.29069C40.3617 8.25657 40.1228 8.29069 39.9181 8.29069C38.8605 8.35893 37.8369 8.46128 36.7793 8.56363L36.3698 8.59775V10.6107C35.824 10.679 35.2781 10.7472 34.7322 10.7813V3.61652C36.2334 3.44593 37.7005 3.30945 39.1675 3.2071ZM36.404 7.3695C37.4957 7.26715 38.5875 7.16479 39.6793 7.09656C40.0546 7.06244 40.4299 7.02832 40.8052 6.9942C40.9075 6.9942 41.0099 6.96009 41.1123 6.92597L41.2487 6.89185L41.3852 6.82361L41.4876 6.75538L41.5899 6.65302L41.6581 6.55067L41.7264 6.44832C41.7605 6.34596 41.7946 6.27773 41.7946 6.17537C41.8287 5.86831 41.8287 5.56125 41.8287 5.25418C41.8287 5.15183 41.7946 5.04947 41.7605 4.913L41.6923 4.81065L41.624 4.70829L41.5217 4.60594L41.4193 4.5377L41.317 4.46947L41.1805 4.43535C41.0781 4.40123 40.9758 4.40123 40.8734 4.40123C40.3275 4.40123 39.7817 4.46947 39.2699 4.50359C38.3146 4.57182 37.3934 4.67418 36.4381 4.74241L36.404 7.3695ZM48.0041 9.04129H49.8806C50.29 9.04129 50.7335 9.04129 51.1771 9.00717C51.2794 9.00717 51.3477 8.97305 51.45 8.97305C51.5524 8.93893 51.6206 8.90481 51.6888 8.8707L51.7912 8.80246L51.8594 8.70011L51.9277 8.59775L51.9618 8.4954L51.9959 8.25657V7.91539L51.9277 7.54009L51.8936 7.43774L51.8594 7.33538L51.7912 7.23303L51.6888 7.16479L51.5865 7.09656L51.3477 7.02832L50.9383 6.96009H50.4265H46.9806C46.6394 6.96009 46.2982 6.96009 45.9911 6.89185C45.8888 6.85773 45.8205 6.85773 45.7523 6.82361L45.65 6.75538L45.5476 6.68714L45.4794 6.61891L45.4111 6.51655L45.3429 6.4142C45.2747 6.27772 45.2064 6.14125 45.1723 6.00478C45.1041 5.62948 45.1041 5.22007 45.1041 4.84477C45.1041 4.36711 45.1382 3.88946 45.3429 3.44593C45.377 3.37769 45.4452 3.30945 45.4794 3.24122C45.7182 3.03651 46.0253 2.93416 46.3323 2.86592C46.6394 2.79768 46.9806 2.79768 47.2876 2.79768H49.5394C50.7677 2.79768 52.03 2.8318 53.2583 2.86592V3.9577C51.6206 3.92358 49.9829 3.88946 48.3453 3.88946C47.97 3.88946 47.5947 3.88946 47.2194 3.92358C47.1511 3.92358 47.0488 3.9577 46.9806 3.9577L46.8441 4.02593L46.7417 4.12829L46.6735 4.26476L46.6394 4.40123L46.6053 4.64006V5.22007L46.6394 5.35654L46.6735 5.49301L46.7759 5.62948L46.9464 5.73184L47.117 5.76595C48.8229 5.80007 50.563 5.83419 52.2689 5.90243L52.4736 5.93654C52.7465 6.00478 53.0195 6.10713 53.2242 6.31184C53.3265 6.4142 53.3948 6.51655 53.4289 6.61891C53.5995 6.9942 53.6336 7.43774 53.6336 7.84716C53.6336 8.32481 53.6336 8.80246 53.4971 9.246C53.463 9.31423 53.463 9.38247 53.4289 9.4507L53.3265 9.58718C53.2583 9.68953 53.19 9.75777 53.0877 9.826C52.9171 9.92836 52.7465 10.0307 52.5759 10.0648C52.303 10.1331 51.9959 10.1331 51.723 10.1672C50.87 10.2013 50.0512 10.2013 49.1982 10.2013C47.8676 10.2013 46.537 10.2354 45.2405 10.2354C45.2405 9.86012 45.2405 9.4507 45.2405 9.07541C46.1276 9.04129 47.0147 9.04129 47.9017 9.04129H48.0041ZM59.2972 10.5425C58.6148 10.4742 57.8983 10.4401 57.216 10.3378C56.9089 10.3037 56.6019 10.2354 56.3289 10.1331C56.1924 10.0648 56.056 10.0307 55.9195 9.92836C55.8171 9.86012 55.7489 9.79188 55.6465 9.72365C55.5783 9.65541 55.5101 9.55306 55.4418 9.48482C55.3736 9.38247 55.3395 9.28011 55.3054 9.17776C55.203 8.80246 55.1689 8.39304 55.1689 7.98363C55.1348 6.9942 55.1348 6.0389 55.1689 5.04948V4.81065C55.203 4.36711 55.2371 3.92358 55.5101 3.54828C55.6124 3.44593 55.6807 3.34357 55.8171 3.27534C56.1583 3.10475 56.5677 3.03651 56.943 3.00239C57.3524 2.96827 57.7277 2.96827 58.1372 3.00239C58.9219 3.03651 59.7407 3.07063 60.5254 3.13886C61.6854 3.24122 62.8113 3.34357 63.9713 3.48004V4.77653C62.436 4.64006 60.9348 4.50359 59.3995 4.40123C58.9219 4.36711 58.4101 4.333 57.8983 4.36711L57.6595 4.40123L57.4889 4.43535L57.3524 4.50359L57.216 4.60594L57.0795 4.74241L56.9771 4.87888L56.9089 5.04948C56.8748 5.15183 56.8407 5.25418 56.8407 5.35654C56.7724 5.83419 56.7383 6.34596 56.7724 6.85773C56.7724 7.26715 56.7724 7.67657 56.8407 8.08598C56.8748 8.18834 56.8748 8.29069 56.9089 8.39304L56.9771 8.56363L57.0795 8.70011L57.216 8.83658L57.3524 8.93893L57.4889 9.00717L57.6595 9.07541C57.796 9.10952 57.9325 9.14364 58.0689 9.14364C58.5125 9.21188 58.9901 9.246 59.4336 9.28011C60.969 9.41659 62.5384 9.55306 64.0737 9.72365V10.9178V11.0543C63.1184 10.9519 62.129 10.8495 61.1737 10.7813C60.5937 10.6448 59.9454 10.6107 59.2972 10.5425ZM69.7373 7.30127C70.9997 7.54009 72.262 7.77892 73.5244 8.01775V5.11771C74.1044 5.25418 74.6844 5.39066 75.2985 5.49301V12.9649C74.7185 12.8284 74.1385 12.6919 73.5244 12.5554V9.62129C72.5009 9.41659 71.5114 9.21188 70.4879 9.00717C69.5667 8.83658 68.6114 8.66599 67.6902 8.4954V11.3954C67.1102 11.2931 66.5302 11.2248 65.9161 11.1225V3.85534C66.4961 3.92358 67.1102 3.99182 67.6902 4.09417V6.96009C68.3726 7.06244 69.0549 7.16479 69.7373 7.30127ZM83.1457 7.77892C83.7598 7.98363 84.3739 8.18834 85.0222 8.39304V9.62129C83.2139 9.00717 81.3716 8.42716 79.5292 7.84716L78.9151 7.67656V9.55306C80.2457 9.96247 81.6104 10.3719 82.941 10.8154C83.521 11.0201 84.1351 11.1907 84.7151 11.3954V12.4872C83.0092 11.9072 81.2692 11.3613 79.5292 10.8495L78.9151 10.679V12.6578C80.2115 13.0331 81.508 13.4425 82.7704 13.8519C83.521 14.0908 84.2716 14.3637 85.0563 14.6025V15.8649C82.5998 15.0461 80.1092 14.2955 77.5844 13.579L77.3115 13.5108V6.00478C79.2562 6.55067 81.201 7.16479 83.1457 7.77892Z" fill="#1D2024"/>
<path d="M13.1355 62.6749C12.0437 59.0242 11.4637 55.6124 11.4296 52.6783H34.2886C34.3569 56.5336 35.9604 60.0819 38.4852 62.6749H13.1355Z" fill="#1D2024"/>
<path d="M10.406 7.57421L10.8495 7.40362C23.6097 2.69533 36.3357 0.238832 49.0959 5.25648e-06C61.856 -0.204703 74.5821 1.80826 87.3422 6.10714L87.8199 6.27773V6.75538C87.7175 22.0744 87.6151 37.3934 87.5128 52.7124C87.4787 60.6278 83.3163 71.7503 75.4691 81.4739C69.1573 89.3211 60.4231 96.2811 49.5053 99.9659H49.13C38.1099 97.1341 29.4098 90.4469 23.0638 82.6339C14.9437 72.5691 10.7813 60.5595 10.7472 52.4053C10.679 45.0017 10.6448 37.5981 10.5766 30.2286L10.406 7.57421ZM25.2815 83.248H48.4817V73.9338H18.7308C18.6285 73.7632 18.5261 73.5926 18.4579 73.422C20.0614 76.288 21.9379 79.1198 24.0873 81.8151C24.4968 82.2927 24.8721 82.7704 25.2815 83.248ZM48.5159 84.4081H26.3391C32.071 90.6858 39.4746 95.9058 48.5159 98.4306V84.4081ZM25.8615 83.8963C25.8274 83.8622 25.8274 83.8622 25.8274 83.828C25.8274 83.8622 25.8615 83.8963 25.8615 83.8963ZM18.0826 72.7397H48.5159V67.2467H49.2323H49.71V98.4647C49.6759 98.4647 49.6418 98.4988 49.6418 98.4988C60.0136 94.8823 68.3385 88.1952 74.4115 80.6551C81.9516 71.3067 85.9775 60.6619 86.1481 53.0194V53.0877H64.2102C64.2102 52.8489 64.2443 52.61 64.2443 52.3712V51.8936H86.1822C86.2163 48.6182 86.2163 45.3429 86.2504 42.1017H64.2443V40.9417H86.2504C86.2845 38.2805 86.2845 35.6534 86.3187 33.0263H64.2443V31.8663H64.0737V31.8321H86.3187C86.3528 28.625 86.3528 25.4521 86.3869 22.245H49.3688V31.8663H48.1747V12.5213C36.0287 12.726 23.8485 15.1484 11.6343 19.8908L11.6001 18.6626C24.1556 13.8178 36.711 11.4296 49.2323 11.3272C61.6513 11.2248 74.0362 13.3743 86.3869 17.639V18.8673C86.421 14.9778 86.4551 11.0884 86.4551 7.23303C74.002 3.10475 61.549 1.16002 49.13 1.36473C36.5063 1.56944 23.9168 3.99182 11.3272 8.66599L11.9413 30.2286C12.0096 37.4616 12.0437 44.6946 12.1119 51.9618C12.1119 51.9618 12.1119 51.9618 12.1119 51.9277H34.3228V52.4053C34.3228 52.6442 34.3228 52.883 34.3569 53.1218H12.0778C12.146 55.8512 12.726 59.0242 13.7155 62.3678C13.7155 62.3337 13.6813 62.2996 13.6813 62.2654H38.0416C38.2463 62.5043 38.451 62.7431 38.6899 62.9478L39.4405 63.4596H14.0566C15.0461 66.462 16.3767 69.6008 18.0826 72.7397ZM18.1849 72.9785C18.1849 72.9444 18.1849 72.9444 18.1849 72.9785ZM13.9884 63.2207C13.9543 63.1525 13.9543 63.0843 13.9202 63.0502C13.9543 63.1184 13.9884 63.1525 13.9884 63.2207ZM13.8519 62.7772C13.8178 62.709 13.8178 62.6407 13.7837 62.5725C13.8178 62.6407 13.8519 62.709 13.8519 62.7772ZM86.114 52.3371V52.4053C86.114 52.3712 86.114 52.3712 86.114 52.3371ZM86.114 52.4053V52.4394C86.114 52.4394 86.114 52.4394 86.114 52.4053ZM86.114 52.61V52.6442C86.114 52.6442 86.114 52.6442 86.114 52.61ZM86.114 52.61C86.114 52.5759 86.114 52.5759 86.114 52.5759V52.61ZM86.114 52.5077C86.114 52.4736 86.114 52.4736 86.114 52.4736V52.5077ZM86.114 51.9959C86.114 51.9618 86.114 51.9618 86.114 51.9618V51.9959ZM49.3688 21.085H86.3528V21.665C86.3528 20.7438 86.3528 19.8226 86.3528 18.9014C74.0362 14.6025 61.7195 12.4531 49.3688 12.5213V21.085ZM86.3528 21.665V21.9379C86.3528 21.8356 86.3528 21.7673 86.3528 21.665ZM86.3528 22.0403V22.245C86.3528 22.1767 86.3528 22.1085 86.3528 22.0403ZM49.3006 98.6012C49.2665 98.6012 49.2665 98.6012 49.2323 98.6353C49.2665 98.6353 49.2665 98.6353 49.3006 98.6012ZM48.8229 98.5329C48.7206 98.4988 48.6523 98.4988 48.55 98.4647C48.6523 98.4647 48.7547 98.4988 48.8229 98.5329ZM49.5735 98.4988C49.6076 98.4988 49.6076 98.4988 49.5735 98.4988Z" fill="#1D2024"/>
<path d="M16.9225 26.4415C17.5708 26.0321 18.2532 25.6227 18.9355 25.2815C18.8332 24.2238 18.7308 22.5861 19.0037 21.6991C19.5155 20.0614 21.0167 18.7308 22.7909 19.0379C22.8932 19.072 22.9614 19.1743 22.8932 19.2085C21.9038 19.7202 21.1191 20.5049 20.6755 21.5967C20.5391 21.9038 20.0614 24.0873 20.7779 24.2579C20.8461 24.292 20.9144 24.292 21.0167 24.292C22.3132 23.7462 23.6438 23.2685 25.0085 22.8591C25.0085 21.8014 25.0426 20.3344 25.4179 19.5496C26.1003 18.0143 27.8062 16.8884 29.6486 17.4343C29.7509 17.4684 29.8192 17.6049 29.7509 17.639C28.6592 18.0143 27.7721 18.6626 27.1921 19.6861C27.0215 19.9932 26.305 22.0744 27.0556 22.3473H27.0897C28.3521 22.0744 29.6486 21.8355 31.0474 21.665C31.218 20.6073 31.491 19.2426 31.9686 18.5261C32.9921 17.0249 35.0392 16.0014 36.9498 16.7178C37.0522 16.752 37.1204 16.8884 37.0181 16.9225C35.7557 17.2296 34.6639 17.8096 33.8792 18.799C33.6745 19.072 32.6168 20.9826 33.231 21.4261C33.2992 21.4261 33.3674 21.4261 33.4357 21.392C34.5275 21.2897 35.7898 21.2555 36.984 21.3238C37.291 20.6755 37.5981 20.0955 37.9393 19.7202C39.1334 18.492 41.7605 18.0484 42.5452 19.1061C42.6134 19.1743 42.6476 19.3108 42.5452 19.3108C41.4193 19.3449 40.2593 19.5155 39.4063 20.3002C39.2699 20.4367 38.7922 20.9144 38.5193 21.4602C40.3275 21.7673 41.8628 22.3814 42.3405 23.5415C42.5111 23.9167 42.6134 24.2579 42.5452 24.6673C42.5452 24.7697 42.3064 24.7015 42.2381 24.5991C39.9522 22.4838 36.3016 22.245 31.4227 23.0979C26.4756 23.9509 22.3473 25.4179 17.912 27.5333C19.6861 29.5462 16.8884 31.0815 15.9672 28.9662C13.8178 31.5251 11.839 27.8062 14.7731 27.3627C13.1013 24.7697 16.479 24.6673 16.9225 26.4415Z" fill="#1D2024"/>
<path d="M17.5367 46.8441C18.1167 46.4006 18.8673 46.0253 19.4814 45.65C18.8673 44.6605 18.492 43.2276 18.7308 42.3064C19.1402 40.6687 20.1638 39.884 21.4261 39.9522C21.5285 39.9522 21.5967 40.0887 21.5285 40.1228C20.6414 40.7028 20.5049 41.4534 20.232 42.5793C20.0955 43.1935 20.4367 44.217 20.8802 44.5923C22.0061 43.9782 21.972 44.0805 23.1662 43.637C22.825 42.5793 22.8932 41.1464 23.3367 40.2593C24.0191 38.8263 25.145 38.2805 26.2709 38.5193C26.3733 38.5534 26.4415 38.6558 26.3391 38.6899C25.4521 39.0652 23.6438 40.4981 24.8379 43.1935C25.9297 42.8182 25.998 42.7499 27.3968 42.4429C27.4992 41.3852 27.5333 40.1228 27.9427 39.3722C28.7956 37.8369 30.8086 37.1204 31.7298 37.4957C31.8321 37.5299 31.9004 37.6663 31.798 37.7004C31.2863 38.0416 30.6039 38.3146 29.9215 39.3381C29.5462 39.884 28.898 41.1464 29.0686 41.9993C30.058 41.8629 31.3545 41.7946 32.4804 41.8287C32.7192 41.1805 33.1969 40.3958 33.5039 40.0205C33.7086 39.7817 33.9816 39.5769 34.2545 39.4746V43.2958C32.378 43.1935 30.2968 43.3982 28.318 43.8758C23.8485 44.9335 22.6885 45.7523 18.6967 47.9017C21.085 49.4029 18.7649 51.6888 17.2979 49.4371C14.7049 52.4053 13.0331 48.5841 15.7284 48.0041C13.6813 45.5135 17.0249 44.1829 17.5367 46.8441Z" fill="#1D2024"/>
<path d="M16.3767 36.6769C17.059 36.2675 17.9802 35.9604 18.6626 35.6192C18.5943 34.5616 18.4579 33.6063 18.7649 32.7192C19.3108 31.1157 20.1638 30.2968 21.5285 30.4333C21.6308 30.4674 21.6991 30.5698 21.6308 30.638C20.6414 31.1498 20.8803 31.8321 20.4367 32.8898C20.3002 33.1969 19.9591 34.4933 20.6755 34.6981C20.7438 34.7322 20.812 34.7322 20.9144 34.7322C22.2109 34.2204 21.7332 34.2545 23.0638 33.9133C23.0979 32.8898 23.1662 31.491 23.5073 30.7404C24.2238 29.2733 25.5544 28.5568 26.7827 28.8639C26.885 28.898 27.0897 29.1368 26.9874 29.1709C25.998 29.478 24.2921 31.491 25.0085 33.0604C25.8615 32.9239 26.4415 32.651 27.9768 32.4463C28.1815 31.3886 28.5227 30.3309 29.0345 29.6145C30.0921 28.1474 31.7298 27.8403 32.6851 28.2839C32.7875 28.318 32.9239 28.5909 32.8216 28.625C31.5592 28.898 31.5251 28.7615 30.7062 29.7509C30.2627 30.2627 29.3756 31.6616 30.0239 32.3098C31.1157 32.2416 31.8663 32.1051 33.0604 32.2074C33.3675 31.5933 33.6063 30.7404 33.9475 30.3992C35.1416 29.1709 37.2228 29.0686 37.9052 29.8874C37.9734 29.9556 38.0075 30.0921 37.9052 30.0921C36.7793 30.1262 36.3698 30.4333 35.4828 31.218C35.3804 31.2863 35.1757 31.5592 34.9369 31.9004H34.2886V34.0157C32.4463 33.8451 30.4333 33.9133 28.5568 34.1863C23.6097 34.9369 21.8014 36.0628 17.7073 38.0416C19.4473 40.0887 16.6155 41.5217 15.7625 39.3722C13.579 41.897 11.6343 38.1099 14.6366 37.7346C12.9649 35.0392 15.899 34.3228 16.3767 36.6769Z" fill="#1D2024"/>
<path d="M63.4937 32.5827V52.4053C63.4937 60.2184 57.1136 66.5643 49.2323 66.5643C41.3852 66.5643 34.971 60.2184 34.971 52.4053V32.5827H63.4937ZM64.176 31.8663H34.2545V52.3712C34.2545 60.5254 40.9758 67.2467 49.1982 67.2467C57.4548 67.2467 64.1419 60.5254 64.1419 52.3712L64.176 31.8663Z" fill="#1D2024"/>
<path d="M48.5841 46.4005C48.7206 46.537 49.0276 46.3664 49.13 46.23C49.3688 45.8547 49.3347 45.377 49.3688 44.8994C49.4029 44.3876 49.4029 43.944 49.2323 43.4664C48.9594 42.6476 48.5841 41.9993 47.6629 41.8628C47.5606 41.8287 47.3559 42.0334 47.4241 42.1017C48.0382 42.7499 48.277 42.7158 48.4476 43.7052C48.6182 44.6605 48.5159 46.3323 48.5841 46.4005ZM42.1358 58.3077C42.2723 58.3419 42.5793 57.9324 42.6817 57.6936C42.784 57.4889 42.7499 57.0795 42.7499 57.0454C42.7158 56.9771 42.3746 57.1136 42.204 57.1136C42.0334 57.1136 41.897 57.0795 41.6581 57.0454C41.4193 57.0113 41.4534 56.4654 41.4193 56.1583C41.3511 55.3736 41.317 54.5889 41.3511 53.8042C41.3511 53.5995 41.4193 53.3265 41.5899 53.19C41.8287 53.0536 42.1699 53.0877 42.4429 53.1218C42.9887 53.2242 43.5005 53.4971 44.0805 53.5995C44.3876 53.6677 44.7288 53.6336 45.0358 53.5312C45.3088 53.463 45.5135 53.2583 45.7523 53.1559C45.8888 53.1218 46.0594 53.0877 46.1617 53.1559C46.6053 53.3947 46.9123 53.8383 47.3559 54.0089C47.9359 54.1795 48.55 54.1112 49.1641 54.1453C49.6418 54.1453 50.1194 54.0771 50.5971 54.1453C50.8018 54.1795 51.143 54.2136 51.2112 54.4524C51.2794 54.7595 50.7677 55.0324 50.8359 55.3395C50.9724 55.8171 51.5183 56.056 51.7571 56.4654C51.8594 56.636 51.8253 56.8407 51.7571 57.0113C51.6888 57.1477 51.45 57.1818 51.3477 57.3183C51.2112 57.523 51.1771 57.7619 51.0406 57.9666C50.9041 58.1713 50.6994 58.3419 50.4947 58.5125C50.0512 58.8536 49.6076 59.1948 49.0959 59.4678C48.9253 59.5701 48.6182 59.3654 48.55 59.536C48.4135 59.8431 48.277 60.2184 48.1406 60.4231C48.0041 60.6278 47.8335 60.6619 47.7312 60.7642C47.6288 60.9007 47.4923 61.1395 47.5606 61.1737C47.6288 61.2078 48.277 61.2078 48.5159 61.1737C48.7547 61.1395 48.8912 61.1054 48.9594 61.0713C49.0276 61.0031 48.9253 60.7984 48.857 60.3889C48.8229 59.9795 49.9488 59.8089 50.4947 59.5019C51.0747 59.1266 51.6547 58.7172 52.2347 58.376C52.4736 58.2395 52.8147 58.2054 53.0194 58.0007C53.1218 57.8983 53.0877 57.7277 53.0877 57.5913C53.0877 57.2501 53.0194 56.9089 53.0194 56.5677C53.0194 56.3971 53.0195 56.1924 53.1559 56.0901C53.2583 55.9877 53.463 55.9536 53.5653 56.0218C53.77 56.1242 53.8042 56.4313 53.9748 56.5677C54.2477 56.7724 54.5889 56.8407 54.8959 56.9771C55.1689 57.1136 55.6465 57.1136 55.6807 57.3866C55.7489 57.8983 55.4077 58.376 55.203 58.8195C55.1007 59.0583 54.8618 59.1948 54.7254 59.4336C54.6571 59.5701 54.6571 59.7407 54.5548 59.8431C54.2818 60.116 53.9065 60.2866 53.6336 60.5595C53.4289 60.7642 53.2583 60.969 53.1559 61.2078C53.0877 61.3442 53.0536 61.4807 52.9853 61.6172C52.883 61.7537 52.7124 61.7878 52.61 61.9925C52.5077 62.1972 52.2689 62.7431 52.4736 62.709C52.6783 62.6749 53.8724 62.4701 53.9065 62.3337C53.9406 62.2313 53.8383 61.9243 53.77 61.549C53.7018 61.1737 54.5548 60.9007 54.9642 60.6619C55.203 60.5254 55.5442 60.5937 55.7489 60.4231C55.8854 60.3207 55.8171 60.0819 55.8512 59.9454C55.9536 59.7066 56.0218 59.4336 56.2265 59.2289C56.4654 58.956 56.8748 58.8536 57.0795 58.5807C57.2842 58.2395 57.523 57.8301 57.4548 57.4548C57.3866 57.1477 57.0113 57.0454 56.8066 56.8066C56.636 56.636 56.4654 56.4313 56.3971 56.1924C56.2948 55.8512 56.2265 55.5101 56.3289 55.1689C56.4654 54.7595 56.8748 54.4865 57.1136 54.1453C57.3183 53.8383 57.6254 53.5995 57.7277 53.2583C57.8301 52.8489 57.6254 52.4053 57.5913 51.9959C57.5913 51.9277 57.523 51.8253 57.5913 51.7571C57.8642 51.5183 58.1713 51.2112 58.5466 51.143C58.8878 51.1088 59.1607 51.45 59.5019 51.5183C59.8431 51.5524 60.2525 51.5865 60.5937 51.45C60.696 51.4159 60.7301 51.1771 60.6619 51.0747C60.4231 50.87 59.9113 50.9382 59.8089 50.6653C59.7407 50.4265 60.2184 50.3582 60.3548 50.1194C60.5254 49.8123 60.6619 49.4712 60.6619 49.0959C60.6619 48.9594 60.3889 48.9594 60.2866 49.0276C60.116 49.13 60.116 49.3688 59.9795 49.5053C59.8772 49.6076 59.7066 49.6418 59.5701 49.6418C59.4336 49.6418 59.2289 49.5735 59.1607 49.4712C59.0583 49.3688 58.9901 49.13 59.0925 49.0618C59.3654 48.8912 59.7407 48.9594 60.0478 48.8912C60.1842 48.857 60.3548 48.8229 60.4231 48.7206C60.5254 48.5159 60.5254 48.277 60.4231 48.0723C60.389 47.97 60.2184 47.97 60.116 48.0041C59.9795 48.0382 59.9113 48.2429 59.7407 48.2429C59.536 48.2429 59.3313 48.1406 59.1948 48.0041C59.0925 47.8676 59.0583 47.6629 59.1266 47.5264C59.2289 47.2876 59.5701 47.2194 59.6725 46.9806C59.8089 46.6735 59.9113 46.2982 59.8431 45.957C59.8089 45.8205 59.536 45.7523 59.4336 45.8547C59.2631 45.957 59.2972 46.1958 59.1948 46.3323C59.0583 46.537 58.9901 46.8441 58.7854 46.9464C58.6489 47.0147 58.4101 46.8782 58.376 46.7076C58.3077 46.4347 58.4783 46.1617 58.5466 45.9229C58.6489 45.65 58.7854 45.377 58.956 45.1382C59.1266 44.8994 59.4678 44.797 59.6042 44.5241C59.7066 44.3193 59.8089 44.0464 59.6725 43.8758C59.5701 43.7393 59.3313 43.8417 59.1948 43.944C59.0925 44.0123 59.1266 44.2511 59.0242 44.3193C58.7172 44.4558 58.3419 44.3535 58.0689 44.4899C57.8301 44.6264 57.7277 44.8652 57.5913 45.1041C57.3524 45.5135 57.3183 46.23 57.216 46.2982C57.1136 46.4005 56.8748 46.3664 56.8066 46.23C56.7042 46.0594 56.8748 45.7864 56.7383 45.6158C56.636 45.5135 56.363 45.5135 56.2607 45.6158C56.1242 45.7523 56.0901 45.957 56.0901 46.1617C56.0901 46.4688 56.1242 46.7758 56.2607 47.0488C56.4995 47.4923 56.8748 47.8335 57.1819 48.2429C57.4889 48.6523 57.8642 49.0276 58.0348 49.5053C58.1372 49.8124 58.1713 50.1876 58.0348 50.4606C57.9325 50.7335 57.6595 51.0065 57.3866 51.0065C57.0113 50.9724 56.7383 50.5629 56.4313 50.3582C56.1242 50.1535 55.8171 49.8806 55.476 49.8124C54.6912 49.6759 53.8724 49.8124 53.0536 49.8124C52.3371 49.8124 51.5865 49.9147 50.87 49.8124C50.5288 49.7782 50.1535 49.6418 49.9147 49.4029C49.6759 49.1641 49.5053 48.8229 49.5053 48.5159C49.4712 48.0723 49.6418 47.6629 49.8124 47.2535C49.9488 46.9806 50.1535 46.7076 50.4265 46.537C50.6312 46.4005 50.9724 46.3323 51.1771 46.4005C51.4159 46.5029 52.0641 47.39 52.2006 47.3559C52.3371 47.3217 52.2347 46.537 52.1665 46.2982C52.03 45.9229 51.6206 45.7182 51.5183 45.3429C51.4841 45.2405 51.6547 45.1041 51.7571 45.1041C51.9618 45.1041 52.2006 45.2405 52.3712 45.4111C52.4736 45.4794 52.9171 46.1276 53.0194 46.0935C53.1218 46.0594 52.9512 45.1723 52.8489 44.8994C52.6783 44.5241 52.1324 44.2511 52.0983 44.1488C52.0641 44.0805 52.0983 44.0123 52.2006 43.9782C52.4053 43.9782 52.61 44.0805 52.8147 44.1488C52.9853 44.217 53.2583 44.4217 53.3606 44.3876C53.463 44.3535 53.3606 44.0464 53.2583 43.9099C52.883 43.4664 52.3712 43.1934 51.9959 42.784C51.7912 42.5793 51.5865 42.3064 51.5865 41.9993C51.5865 41.8287 51.7912 41.6581 51.9618 41.5899C52.2689 41.4534 52.6783 41.3852 52.9512 41.2146C53.0536 41.1464 52.9853 41.0781 52.883 41.044C52.4394 40.8734 51.9618 40.8052 51.4841 40.8052C51.2112 40.8052 50.9724 40.9758 50.6994 41.044C50.5288 41.1122 50.3582 41.2146 50.1535 41.2146C49.8124 41.2146 49.4371 41.2487 49.1982 41.044C49.0618 40.9075 49.2323 40.6346 49.3347 40.4299C49.4371 40.2593 49.6076 40.1569 49.7441 40.0205C49.8465 39.9181 50.1535 39.8158 50.0512 39.7816C49.9488 39.7475 49.4029 39.7475 49.0959 39.8499C48.8229 39.9181 48.5841 40.0205 48.3794 40.2252C48.2088 40.3958 48.2429 40.7711 48.0041 40.8734C47.5947 41.1122 47.39 41.044 46.9464 41.2487C46.8441 41.317 46.6053 41.5899 46.5029 41.624C45.957 41.6923 44.8652 41.4193 44.8311 41.5217C44.7629 41.624 45.6841 42.1358 45.8547 42.6134C45.9229 42.8182 45.4111 42.5111 45.2064 42.5452C44.8652 42.5793 44.5241 42.6476 44.2511 42.784C43.9782 42.9205 43.7393 43.1593 43.5346 43.3982C43.3299 43.6029 43.2276 43.8758 42.9887 44.0464C42.8864 44.1146 42.6476 44.0123 42.5793 44.1146C42.477 44.2511 42.4429 44.5582 42.6134 44.5582L43.5688 44.6264C43.7393 44.6264 43.3982 45.0017 43.5005 45.1723C43.5688 45.2746 43.8076 45.2405 43.9099 45.1723C44.0464 45.1041 44.1146 44.8994 44.2852 44.797C44.4558 44.6946 44.6264 44.5582 44.8311 44.5582C45.0699 44.5582 45.377 44.6605 45.4794 44.8652C45.5817 45.0699 45.3429 45.3088 45.3088 45.5135C45.2747 45.7523 45.4111 46.0594 45.2405 46.23C44.7288 46.7076 44.5582 46.2982 43.8076 47.2535C43.1935 48.0041 43.4664 47.5947 43.2617 48.5841C43.2276 48.7888 43.1935 48.9935 43.0229 49.13C42.8523 49.2323 42.5793 49.3006 42.4087 49.1982C42.0676 49.0276 41.8628 48.6865 41.624 48.3453C41.4876 48.1747 41.5558 47.8676 41.3852 47.7311C41.1464 47.5947 40.8052 47.5947 40.5322 47.6629C40.3275 47.7311 40.2252 47.97 40.1228 48.1406C39.8499 48.5159 39.6452 48.9594 39.4063 49.3347C39.2016 49.6418 38.9287 49.9147 38.7581 50.2218C38.6558 50.3924 38.724 50.5971 38.6216 50.7677C38.4169 51.2453 38.2463 51.6888 38.0075 52.1324C37.9052 52.303 37.7004 52.4053 37.6322 52.61C37.5981 52.8147 37.6663 53.2583 37.7687 53.2583C37.871 53.2583 38.2122 53.0194 38.4169 52.883C38.6558 52.7806 39.0993 52.6442 39.1334 52.5759C39.1675 52.5077 38.8946 52.2688 38.7581 52.0983C38.5193 51.7912 39.0311 51.3477 39.2358 51.0065C39.304 50.87 39.4746 50.8359 39.5428 50.6994C39.6793 50.4265 39.7134 50.0853 39.8499 49.8124C40.0205 49.4371 40.2252 49.0618 40.4981 48.7888C40.6346 48.6523 40.8734 48.55 41.044 48.6865C41.317 48.857 41.3511 49.2323 41.5217 49.5394C41.6581 49.7441 41.8287 49.9488 41.897 50.1877C41.9652 50.3924 41.7605 50.6653 41.897 50.8359C42.0676 51.0406 42.4087 51.1088 42.6817 51.143L43.2958 51.2112L43.364 52.0641C43.3982 52.3712 42.7158 52.1324 42.4087 52.2006C42.1358 52.2688 41.8628 52.3712 41.5558 52.4394C41.2828 52.5077 40.7711 52.2689 40.7028 52.5759C40.464 53.77 40.7711 54.9642 40.8393 56.1583C40.8393 56.4654 40.6687 56.9771 40.9758 57.1136L41.5558 57.3524C41.6581 57.5913 41.7264 57.8983 41.8628 58.0689C41.8287 58.2395 41.9993 58.2736 42.1358 58.3077Z" fill="#1D2024"/>
<path d="M60.9348 35.551C60.9348 35.3122 60.7642 35.2098 60.4572 35.2098H59.2972C58.9901 35.2098 58.8195 35.3122 58.8195 35.551C58.8195 35.7898 58.9901 35.8922 59.2972 35.8922H59.536V38.0416C59.536 38.4169 59.6383 38.5875 59.8772 38.5875C60.116 38.5875 60.2184 38.4169 60.2184 38.0416V35.8922H60.4572C60.7984 35.8922 60.9348 35.7898 60.9348 35.551ZM57.6254 36.3016C57.6254 36.5745 57.4889 36.711 57.216 36.711H56.9089V35.8922H57.216C57.4889 35.8922 57.6254 36.0287 57.6254 36.3016ZM58.376 38.2463C58.376 38.1099 58.3077 37.9734 58.1713 37.8028L57.6254 37.1204C58.0689 37.0181 58.3419 36.6769 58.3419 36.1992C58.3419 35.5851 57.9324 35.1416 57.216 35.1416H56.7042C56.3289 35.1416 56.2265 35.3122 56.2265 35.6875V38.0075C56.2265 38.3828 56.3289 38.5534 56.5677 38.5534C56.8066 38.5534 56.9089 38.3828 56.9089 38.0075V37.1887L57.6936 38.3146C57.8301 38.4852 57.9324 38.5875 58.0689 38.5875C58.2395 38.5875 58.376 38.451 58.376 38.2463ZM54.7595 37.1887H54.043L54.4183 35.9604L54.7595 37.1887ZM55.7148 38.2122C55.7148 38.144 55.7148 38.0757 55.6807 37.9734L54.9301 35.5851C54.8277 35.3122 54.6571 35.1416 54.4183 35.1416C54.1795 35.1416 54.0089 35.3122 53.9065 35.6192L53.1218 37.9734C53.0877 38.0416 53.0877 38.1099 53.0877 38.1781C53.0877 38.3828 53.2242 38.5534 53.3947 38.5534C53.5312 38.5534 53.6677 38.451 53.7359 38.2122L53.8383 37.871H54.9301L54.9983 38.1781C55.0665 38.4169 55.1689 38.5534 55.3395 38.5534C55.5783 38.5875 55.7148 38.451 55.7148 38.2122ZM52.61 37.0181C52.61 36.6428 52.4736 36.5063 52.2006 36.5063H51.7571C51.4841 36.5063 51.3477 36.6087 51.3477 36.8475C51.3477 37.0863 51.4841 37.1887 51.7571 37.1887H51.9618C51.9618 37.5981 51.7571 37.871 51.4159 37.871C51.0406 37.871 50.7677 37.4616 50.7677 36.8134C50.7677 36.1651 51.0406 35.7898 51.4159 35.7898C51.7912 35.7898 51.9618 36.0969 52.1324 36.0969C52.2688 36.0969 52.4053 35.9263 52.4053 35.7557C52.4053 35.4145 52.03 35.0733 51.45 35.0733C50.6312 35.0733 50.1194 35.7557 50.1194 36.8475C50.1194 37.9051 50.6312 38.6216 51.3818 38.6216C52.1324 38.6216 52.61 37.9393 52.61 37.0181ZM49.9488 35.551C49.9488 35.3122 49.7782 35.2098 49.4712 35.2098H48.3112C48.0041 35.2098 47.8335 35.3122 47.8335 35.551C47.8335 35.7898 48.0041 35.8922 48.3112 35.8922H48.55V38.0416C48.55 38.4169 48.6523 38.5875 48.8912 38.5875C49.13 38.5875 49.2323 38.4169 49.2323 38.0416V35.8922H49.4712C49.7782 35.8922 49.9488 35.7898 49.9488 35.551ZM47.697 35.551C47.697 35.3122 47.5264 35.2098 47.2194 35.2098H46.0594C45.7523 35.2098 45.5817 35.3122 45.5817 35.551C45.5817 35.7898 45.7523 35.8922 46.0594 35.8922H46.2982V38.0416C46.2982 38.4169 46.4005 38.5875 46.6394 38.5875C46.8782 38.5875 46.9806 38.4169 46.9806 38.0416V35.8922H47.2194C47.5264 35.8922 47.697 35.7898 47.697 35.551ZM45.1723 37.0863V35.6875C45.1723 35.3122 45.0699 35.1416 44.8311 35.1416C44.5923 35.1416 44.4899 35.3122 44.4899 35.6875V37.0181C44.4899 37.5981 44.2852 37.9051 43.9099 37.9051C43.5346 37.9051 43.3299 37.5981 43.3299 37.0181V35.6875C43.3299 35.3122 43.2276 35.1416 42.9887 35.1416C42.7499 35.1416 42.6476 35.3122 42.6476 35.6875V37.0863C42.6476 38.0757 43.1252 38.6216 43.9099 38.6216C44.6605 38.6216 45.1723 38.0757 45.1723 37.0863ZM42.3746 35.551C42.3746 35.3122 42.204 35.2098 41.897 35.2098H40.7369C40.4299 35.2098 40.2593 35.3122 40.2593 35.551C40.2593 35.7898 40.4299 35.8922 40.7369 35.8922H40.9758V38.0416C40.9758 38.4169 41.0781 38.5875 41.317 38.5875C41.5558 38.5875 41.6581 38.4169 41.6581 38.0416V35.8922H41.897C42.204 35.8922 42.3746 35.7898 42.3746 35.551ZM40.0205 37.4957C40.0205 36.984 39.7475 36.6769 39.2016 36.4722C38.8605 36.3357 38.6557 36.3016 38.6557 36.0628C38.6557 35.8922 38.7922 35.7898 38.9969 35.7898C39.1675 35.7898 39.3722 35.8922 39.5087 35.8922C39.7134 35.8922 39.8158 35.7557 39.8158 35.5851C39.8158 35.3122 39.5087 35.1075 38.9969 35.1075C38.3487 35.1075 37.9393 35.551 37.9393 36.1651C37.9393 36.6769 38.2122 36.9157 38.7581 37.1204C39.0652 37.2228 39.2699 37.3251 39.2699 37.5981C39.2699 37.8028 39.1334 37.9393 38.9287 37.9393C38.6216 37.9393 38.3828 37.7687 38.2122 37.7687C38.0075 37.7687 37.871 37.9051 37.871 38.1099C37.871 38.3828 38.2805 38.6557 38.8263 38.6557C39.5769 38.6216 40.0205 38.144 40.0205 37.4957Z" fill="#1D2024"/>
</g>
<defs>
<clipPath id="clip0_1_19">
<rect width="100" height="100" fill="white"/>
</clipPath>
</defs>
</svg>
