<svg width="100" height="100" viewBox="0 0 100 100" fill="none" xmlns="http://www.w3.org/2000/svg">
<g clip-path="url(#clip0_1_46)">
<path d="M49.962 0.702087C22.8083 0.702087 0.664124 22.8463 0.664124 50C0.664124 77.1537 22.8083 99.2979 49.962 99.2979C77.1157 99.2979 99.2599 77.1537 99.2599 50C99.241 22.8463 77.0968 0.702087 49.962 0.702087ZM49.962 93.6053C25.9393 93.6053 6.35672 74.0228 6.35672 50C6.35672 25.9772 25.9393 6.39469 49.962 6.39469C73.9848 6.39469 93.5673 25.9772 93.5673 50C93.5673 74.0228 73.9658 93.6053 49.962 93.6053Z" fill="#1D2024"/>
<path d="M35.8444 83.3207C22.8842 77.7989 13.7761 64.9336 13.7761 50C13.7761 46.2049 14.3643 42.5427 15.4649 39.0892L35.8444 83.3207Z" fill="#1D2024"/>
<path d="M60 84.7628C56.8121 85.6926 53.4345 86.186 49.9431 86.186C46.4516 86.186 43.093 85.6926 39.9051 84.7628L49.9431 61.3283L60 84.7628Z" fill="#1D2024"/>
<path d="M84.4592 39.1082C85.5598 42.5427 86.148 46.2049 86.148 50C86.148 64.9336 77.0209 77.7989 64.0797 83.3017L84.4592 39.1082Z" fill="#1D2024"/>
<path d="M68.1973 18.7666C72.6186 21.3662 76.4326 24.8577 79.4118 29.0133L61.3852 67.3245L55.3131 52.6945H44.611L38.5389 67.3245L20.5123 29.0133C23.4915 24.8577 27.3055 21.3472 31.7268 18.7666L44.3643 48.2732H55.5598L68.1973 18.7666Z" fill="#1D2024"/>
<path d="M49.962 13.814C53.4915 13.814 56.926 14.3264 60.1518 15.2751L49.962 39.8102L39.7723 15.2751C42.9981 14.3264 46.4137 13.814 49.962 13.814Z" fill="#1D2024"/>
</g>
<defs>
<clipPath id="clip0_1_46">
<rect width="100" height="100" fill="white"/>
</clipPath>
</defs>
</svg>
